<svg width="23" height="13" viewBox="0 0 23 13" fill="none" xmlns="http://www.w3.org/2000/svg">
<g id="Page 1">
<path id="Fill 1" fill-rule="evenodd" clip-rule="evenodd" d="M0 0.894C0 0.894 5.333 0.465 10.667 0.23C12 0.174 13.333 0.013 14.583 0C15.833 0.002 16.833 0.099 17.833 0.23C19.833 0.468 21 0.894 21 0.894V1.084C21 1.084 19.833 1.51 17.833 1.748C16.833 1.879 15.75 1.977 14.5 1.978C13.25 1.965 11.958 1.804 10.625 1.748C5.292 1.513 0 1.084 0 1.084V0.894Z" fill="black"/>
<path id="Fill 3" fill-rule="evenodd" clip-rule="evenodd" d="M1 5.78701C1 5.78701 2.333 5.46901 4.333 5.24401C6.333 4.99201 9 4.84101 11.667 4.83801C14.333 4.83901 17 4.98801 19 5.24201C21 5.46801 22.333 5.78701 22.333 5.78701C22.333 5.78701 21 6.10601 19 6.33201C17 6.58601 14.333 6.73501 11.667 6.73601C9 6.73301 6.333 6.58201 4.333 6.33001C2.333 6.10501 1 5.78701 1 5.78701Z" fill="black"/>
<g id="Group 7">
<mask id="mask0" mask-type="alpha" maskUnits="userSpaceOnUse" x="0" y="10" width="21" height="3">
<path id="Clip 6" fill-rule="evenodd" clip-rule="evenodd" d="M21 12.5738H0V11.5849V10.596H21V12.5738Z" fill="white"/>
</mask>
<g mask="url(#mask0)">
<path id="Fill 5" fill-rule="evenodd" clip-rule="evenodd" d="M21 11.68C21 11.68 15.833 12.109 10.5 12.344C9.167 12.4 7.917 12.561 6.667 12.574C5.417 12.572 4.292 12.475 3.292 12.344C1.292 12.106 0 11.68 0 11.68V11.49C0 11.49 1.333 11.064 3.333 10.826C4.333 10.695 5.5 10.597 6.75 10.596C8 10.609 9.167 10.77 10.5 10.826C15.833 11.061 21 11.49 21 11.49V11.68Z" fill="black"/>
</g>
</g>
</g>
</svg>
