<svg width="26" height="29" viewBox="0 0 26 29" fill="none" xmlns="http://www.w3.org/2000/svg">
<path fill-rule="evenodd" clip-rule="evenodd" d="M10.6902 18.1786V25.5562C10.6902 25.5562 9.35293 24.0818 7.292 23.5366C5.23107 22.9905 3.8938 22.8496 3.8938 22.8496L3.90247 21.1069L4.45887 21.3939L4.62353 21.0398V20.1659L4.56287 19.2164L4.22053 18.2983L3.91373 17.9569L3.97093 14.7612C3.97093 14.7612 6.58913 15.1637 8.29473 16.1845C9.99946 17.2053 10.6902 18.1786 10.6902 18.1786Z" fill="#B4E0F1"/>
<path fill-rule="evenodd" clip-rule="evenodd" d="M12.7477 20.0753C12.7477 20.0753 12.7667 19.2949 13.5641 18.5968C14.3623 17.8987 17.4823 15.7212 19.9826 15.153C22.4838 14.5857 21.9569 14.7615 21.9569 14.7615V17.9827C21.9569 17.9827 20.2279 18.8932 20.1533 19.9845C20.0788 21.0758 20.1464 21.3713 20.3319 21.745C20.5173 22.1187 21.0902 22.2036 21.0902 22.2036V22.9773C21.0902 22.9773 18.1236 24.0397 16.6485 24.9161C14.5668 26.1535 13.3699 27.7349 12.9981 28.2079C12.6272 28.6809 12.7477 20.0753 12.7477 20.0753Z" fill="#B4E0F1"/>
<path fill-rule="evenodd" clip-rule="evenodd" d="M22.4577 20.027C22.3459 20.2759 22.1327 20.5247 21.884 20.7251C21.7531 20.8296 21.6093 20.9187 21.4645 20.9884C21.3952 21.0198 21.3111 21.0521 21.26 21.0648C21.2444 21.0733 21.2011 21.081 21.1482 21.0852C21.1439 21.0852 21.1369 21.0835 21.1309 21.0903C21.1369 21.0886 21.1161 21.1013 21.091 21.0504C21.065 21.0096 21.0451 20.9383 21.0321 20.8635C21.0061 20.709 21.0069 20.5315 21.0182 20.3548C21.0321 20.1765 21.0563 19.9947 21.1005 19.8189C21.1213 19.7298 21.1439 19.6423 21.1742 19.5574C21.2028 19.4792 21.234 19.3977 21.2747 19.306L21.2721 19.3128C21.4281 18.9807 21.5807 18.6869 21.8086 18.4754C21.8641 18.4211 21.9265 18.3726 21.9871 18.3285L22.0573 18.2826C22.0911 18.2903 22.1431 18.3022 22.1891 18.32C22.2532 18.3438 22.3139 18.3735 22.3633 18.4066C22.4127 18.438 22.4525 18.4771 22.4681 18.5017C22.4681 18.5017 22.4655 18.5009 22.4664 18.4992L22.4967 18.5603C22.482 18.5408 22.5045 18.5969 22.5071 18.6155C22.5375 18.7353 22.5487 18.8958 22.5479 19.0572C22.5401 19.3688 22.5071 19.7094 22.4577 20.027ZM22.1509 18.224C22.1353 18.2351 22.1275 18.2402 22.1145 18.2478C22.1145 18.2478 22.111 18.2487 22.1093 18.2495L22.1431 18.2291L22.1509 18.224ZM17.2794 15.6983C17.0878 15.7866 16.8746 15.8885 16.6805 15.9939C15.8944 16.4032 15.13 16.861 14.4064 17.3866C14.0476 17.6533 13.6957 17.9336 13.3646 18.2427C13.2008 18.3981 13.0379 18.5578 12.8845 18.7293C12.8516 18.7667 12.8204 18.8058 12.7883 18.8431C12.667 18.6911 12.5413 18.5442 12.4104 18.4032C12.0976 18.0746 11.7578 17.7782 11.4086 17.4979C11.0541 17.2236 10.6918 16.9612 10.3131 16.7259C9.93784 16.4856 9.55131 16.2648 9.15784 16.0584C8.96371 15.9505 8.75311 15.8503 8.56071 15.7595C8.36484 15.6745 8.16117 15.5854 7.96184 15.5115L9.27311 14.8185C9.68044 14.6036 10.1814 14.6682 10.5176 14.9807L12.2172 16.562C12.4165 16.7472 12.6722 16.8406 12.9287 16.8406C13.1844 16.8406 13.4409 16.7472 13.6402 16.562L15.624 14.7166C15.7809 14.5722 16.0158 14.551 16.1943 14.6682L17.5818 15.5701C17.4804 15.6125 17.3782 15.6558 17.2794 15.6983ZM12.8152 27.9388L12.8126 27.9371C12.8212 27.9439 12.8273 27.949 12.8152 27.9388ZM4.69104 19.3111C4.73091 19.4003 4.76297 19.4801 4.79071 19.5565C4.82104 19.6423 4.84184 19.7298 4.86351 19.8189C4.90597 19.9956 4.92677 20.1773 4.93977 20.3548C4.95017 20.5323 4.94931 20.709 4.92244 20.8618C4.90857 20.9366 4.88777 21.0071 4.86177 21.0453C4.83664 21.0945 4.81757 21.0776 4.82797 21.0767C4.82364 21.0691 4.81671 21.0699 4.81671 21.0699C4.76297 21.0657 4.72051 21.0572 4.70664 21.0487C4.65811 21.0351 4.57404 21.0028 4.50644 20.9714C4.36344 20.9018 4.22131 20.8117 4.09217 20.7073C3.84951 20.5068 3.63804 20.2623 3.52971 20.0177C3.50717 19.8707 3.48637 19.7111 3.47424 19.5574C3.45604 19.3884 3.44131 19.2194 3.43957 19.058C3.43697 18.8975 3.44997 18.7387 3.47684 18.6206C3.47857 18.6036 3.50111 18.5476 3.48464 18.5697L3.51324 18.5102C3.52711 18.4873 3.56351 18.4508 3.60857 18.4202C3.65624 18.3879 3.71604 18.3574 3.77931 18.3344C3.82351 18.3157 3.87377 18.303 3.90584 18.2954L3.96997 18.3361C4.03151 18.3794 4.09391 18.427 4.15024 18.4797C4.37817 18.6886 4.53331 18.9807 4.69104 19.3111ZM3.85211 18.2614C3.84951 18.2597 3.84604 18.2588 3.84431 18.258C3.83044 18.2504 3.82264 18.2453 3.80618 18.2334L3.81398 18.2385L3.85211 18.2614ZM7.94972 12.3565C8.05199 11.818 8.13172 11.2023 8.13432 10.6486C8.14992 10.0821 8.13692 9.51652 8.10832 8.95685L8.01385 7.30079C7.99479 6.75641 7.99652 6.23581 8.09879 5.71691C8.17332 5.19121 8.33539 4.68845 8.54252 4.21201C8.74879 3.73302 9.05385 3.30584 9.41612 2.93896C10.1441 2.2001 11.1677 1.77462 12.2328 1.64213L12.6271 1.60222L13.0509 1.58693L13.4392 1.60052L13.8318 1.64808C14.3527 1.73216 14.8519 1.92239 15.3017 2.19501C15.7523 2.46762 16.1545 2.82261 16.4951 3.22941C16.8391 3.64215 17.1061 4.08802 17.3236 4.58823C17.5299 5.06552 17.6633 5.59801 17.7673 6.12965C17.8497 6.56277 17.9077 7.00524 17.9493 7.44431C17.2837 7.34325 16.6155 7.21331 15.9595 7.0545C15.5816 6.95938 15.2055 6.85832 14.8345 6.74367C14.6465 6.69186 14.4653 6.62307 14.2816 6.56277C14.0979 6.50078 13.915 6.43878 13.7373 6.36405C13.3742 6.22901 13.0267 6.06765 12.6826 5.90205C12.5093 5.82052 12.3498 5.71776 12.1834 5.62773C12.0135 5.53941 11.861 5.43155 11.7093 5.32285C11.5568 5.21499 11.3973 5.11478 11.2691 4.98484C11.1417 4.85915 10.9779 4.74535 10.8791 4.61201C10.7768 4.47528 10.6624 4.36318 10.561 4.21371L10.288 3.6982L9.68999 4.00819L9.97339 4.51775C10.0341 4.60692 10.106 4.69694 10.1797 4.78611C10.1485 4.84556 10.1112 4.91435 10.0592 4.99928C9.92139 5.22858 9.71165 5.52243 9.46205 5.77975C9.21505 6.03963 8.92905 6.25704 8.69939 6.39292C8.58499 6.46341 8.48619 6.51267 8.41425 6.54409C8.34405 6.57721 8.30332 6.59675 8.30332 6.59675L8.48705 7.04431C8.48705 7.04431 8.53472 7.02392 8.61792 6.98911C8.70285 6.95683 8.82072 6.90418 8.95592 6.82944C9.22892 6.68422 9.56865 6.44812 9.86245 6.16702C10.1589 5.88846 10.4093 5.56913 10.5775 5.3169C10.5913 5.29652 10.6017 5.27869 10.6147 5.25915C10.6936 5.3254 10.7733 5.38909 10.8505 5.46128C11.0021 5.60565 11.1772 5.71351 11.3479 5.82816C11.5169 5.94536 11.6877 6.05916 11.8697 6.14918C12.0499 6.24345 12.2241 6.34791 12.4087 6.43114C12.7762 6.60014 13.1445 6.7598 13.5241 6.89229C13.7113 6.96702 13.8994 7.02223 14.0909 7.08252C14.2825 7.14197 14.4653 7.19802 14.6586 7.24728C15.0434 7.35769 15.4187 7.43242 15.8078 7.52159C16.2004 7.60907 16.541 7.67616 16.9076 7.73391C16.8339 8.67829 16.2931 13.2932 12.7701 13.2932C10.0696 13.2932 9.20379 9.50293 8.95679 7.87319L8.46972 7.94368C8.68639 9.37299 9.35979 12.3471 11.2725 13.3968C11.1867 13.503 11.0819 13.6304 10.9527 13.7747L10.8305 13.9132C10.6875 14.0771 10.5792 14.1977 10.4076 14.342C9.97599 14.156 9.47245 14.1654 9.03912 14.3947L7.41499 15.2525C7.47392 14.855 7.56492 14.4125 7.64205 13.9981L7.94972 12.3565ZM11.7344 13.6023C12.0499 13.7127 12.394 13.7747 12.7701 13.7747C13.2858 13.7747 13.7425 13.6873 14.1498 13.5369C14.331 13.7849 14.6456 14.1747 15.072 14.5654L13.3014 16.2121C13.0925 16.4066 12.7649 16.4066 12.556 16.2121L10.8565 14.6316C10.8496 14.6248 10.8409 14.6206 10.834 14.6138C10.9761 14.4839 11.0836 14.3641 11.204 14.2274L11.3236 14.0924C11.4996 13.8953 11.6382 13.7246 11.7344 13.6023ZM18.2769 15.3195C18.2353 15.334 18.1937 15.3476 18.1521 15.362L16.4664 14.2656C16.1536 14.0626 15.7653 14.0711 15.455 14.2554C15.078 13.9174 14.7877 13.5709 14.6066 13.3314C16.8842 12.1059 17.3192 8.69782 17.3946 7.801C17.451 7.80864 17.509 7.81544 17.5671 7.82223C17.5636 7.8596 17.5602 7.90036 17.5558 7.94707C17.5463 8.05578 17.5342 8.18742 17.5203 8.33859C17.509 8.48296 17.4848 8.6647 17.4804 8.87107C17.4657 9.65155 17.5272 10.6452 17.6208 11.649C17.6694 12.1475 17.7222 12.652 17.8072 13.1233C17.8895 13.5913 17.9814 14.021 18.0628 14.3879C18.1538 14.7845 18.2275 15.1055 18.2769 15.3195ZM21.9568 23.9523C21.0901 24.0449 17.6486 24.568 14.071 27.3833L14.2868 27.7596C18.2717 24.6241 21.7947 24.416 21.8311 24.4143L21.9568 24.4033V23.9523ZM21.9568 21.6568L22.2081 21.4623C22.579 21.1761 22.8858 20.8194 23.1112 20.4126L23.1996 20.2538L23.2152 20.2122C23.2914 19.824 23.3452 19.4555 23.3348 19.0512C23.3287 18.8499 23.3192 18.6444 23.2533 18.4117C23.2299 18.3438 23.2204 18.3132 23.171 18.2104L23.1363 18.151C23.1103 18.1128 23.0817 18.0746 23.0522 18.0389C22.9491 17.9234 22.8399 17.8495 22.7281 17.7901C22.6172 17.7315 22.4438 17.6907 22.3294 17.661C22.2324 17.6372 21.9568 17.6227 21.9568 17.6193V14.7616L21.806 14.7251H21.8077C20.9194 14.7251 20.0536 14.9093 19.1904 15.1395C19.0465 15.1786 18.9026 15.1743 18.7596 15.2151C18.7189 15.0011 18.66 14.6741 18.5898 14.3081C18.523 13.942 18.4476 13.5038 18.3844 13.0486C18.3194 12.5968 18.2856 12.1017 18.2561 11.6074C18.1989 10.624 18.1755 9.62097 18.2154 8.90674C18.2249 8.73944 18.2518 8.57978 18.27 8.42266C18.289 8.27149 18.3064 7.78486 18.3202 7.67616C18.3332 7.57425 18.3436 7.08167 18.3506 7.08167C18.3506 7.08167 18.3722 6.42009 18.2752 5.86213C18.1729 5.30416 18.0464 4.83961 17.8202 4.29184C17.6026 3.77039 17.3019 3.28801 16.9344 2.83875C16.5886 2.41496 16.1804 2.05402 15.715 1.74999C15.1907 1.40858 14.2391 1.07822 13.6142 1.00603C13.5735 1.00179 13.5319 0.99669 13.4912 0.992444L13.0318 0.974609L12.6072 0.98565L12.1565 1.02387C10.9839 1.15211 9.79745 1.61495 8.93165 2.46762C8.50351 2.88885 8.14385 3.38397 7.90118 3.92326C7.65678 4.46084 7.47045 5.0239 7.38031 5.59546C7.25985 6.16532 7.24858 6.7615 7.26071 7.32371L7.33178 8.98912C7.35691 9.67872 7.35778 10.3615 7.31011 11.0435C7.28238 11.4367 7.21651 11.8274 7.13851 12.2146L6.80918 13.8384C6.72858 14.2503 6.63931 14.6333 6.56825 15.0597C5.74058 14.8304 4.90165 14.6512 4.04625 14.5229L3.75678 14.4805V14.7616C3.75678 15.7119 3.77151 16.6614 3.76545 17.6117C3.69351 17.6193 3.63111 17.6312 3.56351 17.6465C3.44825 17.6762 3.33818 17.717 3.22465 17.7756C3.11198 17.8359 3.00191 17.9089 2.89618 18.027C2.86498 18.0635 2.83725 18.1026 2.81038 18.1425L2.77485 18.2011C2.72371 18.3073 2.71505 18.337 2.68991 18.4066C2.62058 18.641 2.60845 18.8482 2.60151 19.0512C2.59718 19.2533 2.60498 19.4487 2.62318 19.6406C2.64745 19.8351 2.67518 20.0168 2.71505 20.2164L2.72458 20.2623L2.73931 20.2962C2.94125 20.748 3.27231 21.0674 3.63978 21.3111C3.82438 21.4325 4.02025 21.537 4.23778 21.6151C4.35218 21.6517 4.45271 21.6831 4.59658 21.7035C4.67805 21.7162 4.73178 21.7171 4.77511 21.7162C4.87045 21.7171 4.96318 21.6975 5.05158 21.6686C5.24051 21.5905 5.36705 21.4308 5.41471 21.3009C5.47191 21.1667 5.48925 21.047 5.50138 20.9332C5.51958 20.7064 5.49878 20.5001 5.46931 20.2971C5.43985 20.095 5.38611 19.9013 5.34018 19.7068L5.26045 19.4155C5.23011 19.3111 5.19891 19.2126 5.16771 19.1259L5.16511 19.12C5.04378 18.7803 4.89471 18.3922 4.61305 18.0652C4.54545 17.982 4.47091 17.9064 4.39031 17.8334L4.26638 17.7289L4.26205 17.7264C4.25511 16.8363 4.26031 15.9471 4.26205 15.058C5.01605 15.1964 5.77091 15.3722 6.50411 15.5947C6.91665 15.7187 7.32485 15.8588 7.72005 16.0193C7.92198 16.0975 8.10658 16.1841 8.29985 16.2716C8.50178 16.3718 8.68378 16.4627 8.86925 16.5705C9.24625 16.7777 9.61371 16.9985 9.96905 17.2355C10.34 17.4758 10.691 17.7425 11.0307 18.0185C11.3826 18.303 11.7084 18.6172 12.0048 18.9561C12.1097 19.0758 12.2111 19.1981 12.303 19.3247C12.4078 19.464 12.4104 19.3986 12.478 19.5285L12.4954 24.0143L12.4113 26.2988L12.3238 27.4402V27.5447L12.3558 27.4954C12.0525 27.2475 11.9008 27.2203 11.5776 26.9961L11.126 26.6496L10.5532 26.2691C10.242 26.0619 9.91878 25.8725 9.58771 25.6967C9.25751 25.5218 8.92818 25.3468 8.58671 25.1931C8.22965 25.0258 7.86738 24.8746 7.49818 24.7362C7.12725 24.6003 6.75458 24.4712 6.37411 24.3651C5.99538 24.253 5.35578 24.1638 4.96751 24.0865C4.65118 24.0287 3.75678 23.9837 3.75678 23.9549V24.1731V24.1876C3.75678 24.1876 4.49691 24.3302 5.06111 24.4619C5.43031 24.5485 5.83071 24.6886 6.19471 24.8024C6.55958 24.9094 6.93225 25.0674 7.28758 25.2033C7.69578 25.3629 8.10658 25.5583 8.49485 25.7485C8.84065 25.9184 9.17691 26.1018 9.50711 26.2988C9.78271 26.4627 10.0626 26.625 10.3244 26.8101L10.7984 27.1286L11.2543 27.4708C11.477 27.639 11.6954 27.8131 11.9086 27.9931L12.355 28.3693L12.4286 28.4296C12.4286 28.4296 12.4763 28.4636 12.5092 28.4797C12.5439 28.4967 12.5699 28.5061 12.602 28.5154C12.7276 28.5485 12.862 28.5349 12.9746 28.4763C13.089 28.4211 13.2043 28.3133 13.245 28.1893C13.2641 28.1358 13.2901 28.0458 13.2901 28.0245V27.9524L13.2702 27.667L13.2641 26.5256L13.2728 24.2411L13.2901 19.6729V19.6695V19.5913L13.2572 19.5344C13.2537 19.5285 13.2476 19.5234 13.245 19.5175C13.3152 19.4189 13.3915 19.3179 13.473 19.2228C13.6038 19.0673 13.7468 18.9179 13.8933 18.771C14.1897 18.4788 14.5121 18.2062 14.844 17.9446C15.5157 17.4274 16.2394 16.9654 16.9908 16.5476C17.1771 16.4397 17.3556 16.3497 17.5584 16.2486C17.7517 16.1612 17.9328 16.0779 18.1348 15.9998C18.5282 15.8393 19.1184 15.7077 19.531 15.5854C20.2642 15.3671 21.0901 15.0953 21.9568 15.0376V17.8317V17.9828C21.8762 18.0559 21.6274 18.1425 21.559 18.224C21.2764 18.5493 20.8786 19.3111 20.8492 19.4147L20.6966 19.7068C20.6524 19.9022 20.5658 20.0958 20.5372 20.2979C20.5086 20.5001 20.4704 20.7064 20.4904 20.9323C20.5016 21.0453 20.5112 21.1642 20.5692 21.2958C20.6169 21.4232 20.7374 21.5795 20.9211 21.6551C21.0086 21.6831 21.097 21.7018 21.1898 21.7009C21.2331 21.7009 21.4697 21.7001 21.5494 21.6873C21.6361 21.6746 21.9568 21.6568 21.9568 21.6372V21.6568Z" fill="black"/>
<path fill-rule="evenodd" clip-rule="evenodd" d="M21.668 18.1754H22.045V14.6883L21.668 14.7248V18.1754Z" fill="black"/>
<mask id="mask0" mask-type="alpha" maskUnits="userSpaceOnUse" x="2" y="0" width="22" height="29">
<path fill-rule="evenodd" clip-rule="evenodd" d="M2.6001 28.5331H23.336V0.974442H2.6001V28.5331Z" fill="white"/>
</mask>
<g mask="url(#mask0)">
<path fill-rule="evenodd" clip-rule="evenodd" d="M3.7666 24.1296H4.2736V21.1063H3.7666V24.1296Z" fill="black"/>
<path fill-rule="evenodd" clip-rule="evenodd" d="M21.4502 24.1296H21.9572V21.1063H21.4502V24.1296Z" fill="black"/>
</g>
</svg>
