<svg width="25" height="26" viewBox="0 0 25 26" fill="none" xmlns="http://www.w3.org/2000/svg">
<path fill-rule="evenodd" clip-rule="evenodd" d="M6.05417 3.08718L2.98584 7.72818L12.215 13.1134L14.4992 4.88443L10.5425 1.94806L6.05417 3.08718Z" fill="#F18B98"/>
<mask id="mask0" mask-type="alpha" maskUnits="userSpaceOnUse" x="2" y="0" width="21" height="26">
<path fill-rule="evenodd" clip-rule="evenodd" d="M22.7567 25.9247V0.812531L2.5 0.812531V25.9247H22.7567Z" fill="white"/>
</mask>
<g mask="url(#mask0)">
<path fill-rule="evenodd" clip-rule="evenodd" d="M3.30642 7.64572L12.1714 13.0358L14.9056 8.19091L14.9348 8.11941L15.5664 7.02009L17.0064 4.46884L4.99642 7.35322C5.09892 7.12084 5.29142 6.95753 5.52642 6.89497L16.6856 3.89116L12.4398 2.06059C12.3031 2.00128 12.1473 1.98747 12.0014 2.02241L6.52225 3.31916L3.30642 7.64572ZM5.04808 19.5976C5.46391 20.857 6.28891 21.8653 6.90891 22.4901C7.67225 23.2587 8.59891 23.8713 9.66391 24.3117C10.9197 24.8309 12.2797 25.0568 13.5972 24.965C14.1614 24.9252 14.7247 24.8366 15.2706 24.7001C16.6347 24.3597 17.9014 23.721 18.9364 22.8517C20.6414 21.4192 21.7306 19.2962 21.8497 17.1731C21.9481 15.4173 21.4756 13.6891 20.5197 12.3054C19.8747 11.3702 19.0747 10.591 18.1422 9.98897C17.4897 9.56728 16.4631 9.01722 15.2756 8.78728C15.1772 8.76778 15.1181 8.75559 15.0656 8.76859C14.9964 8.78566 14.9681 8.83603 14.9314 8.8994L12.2464 13.3007C12.0581 13.2097 11.4214 12.8547 10.3497 12.242L8.85308 11.397L7.94058 10.8738C7.83475 10.8242 7.76808 10.7868 7.72058 10.7592C7.64475 10.7153 7.59308 10.6861 7.52558 10.7032C7.47641 10.7153 7.43808 10.7478 7.36808 10.8047C7.00058 11.1078 6.69141 11.4385 6.40975 11.7521C5.82058 12.4086 5.34058 13.2187 5.01975 14.0962C4.69308 14.9883 4.52808 15.9348 4.54308 16.8327C4.55475 17.4932 4.65391 18.192 4.85558 19.0297L5.01725 18.9923L4.95641 19.0833L4.85891 19.037L5.04808 19.5976ZM15.5248 25.6304C14.7614 25.8205 13.9764 25.9197 13.1931 25.9245C9.59476 25.9481 6.26476 24.016 4.70976 21.0032C3.83142 19.3043 3.52976 17.347 3.85892 15.492C4.20809 13.5266 5.29226 11.7285 6.90976 10.4293L7.00226 10.3546L2.49976 7.81797L5.94559 2.56759C5.96142 2.54403 5.99142 2.52778 6.04726 2.51397L6.17142 2.48716L12.3298 0.814218C12.3639 0.806093 12.4014 0.82803 12.4598 0.864593L17.9956 3.88384L15.3514 8.21447L15.4673 8.23722C16.5048 8.43547 17.5406 8.82953 18.4639 9.37634C20.2964 10.4643 21.6848 12.1388 22.2748 13.971C22.8706 15.8211 22.9148 17.6403 22.4039 19.2328C21.7273 21.3428 20.3564 23.1498 18.5423 24.3215C17.6114 24.9227 16.5964 25.3631 15.5256 25.6296L15.5248 25.6304Z" fill="#181716"/>
</g>
<path fill-rule="evenodd" clip-rule="evenodd" d="M16.4278 10.6469C16.4278 10.6469 16.5486 10.7086 16.7745 10.8248C17.0103 10.9564 17.3411 11.1514 17.7286 11.4529C18.1136 11.7543 18.5545 12.1614 18.9695 12.7025C19.3861 13.242 19.757 13.9277 20.0078 14.724L20.1003 15.0433L20.1636 15.3423C20.2111 15.5389 20.2511 15.7494 20.2695 15.9858C20.2986 16.2157 20.3203 16.4489 20.3128 16.6797C20.3186 16.912 20.3136 17.1477 20.282 17.3857C20.192 18.3372 19.8845 19.3252 19.3478 20.2311C18.8011 21.1297 18.0245 21.9382 17.0786 22.541C16.1453 23.148 14.9961 23.5177 13.8811 23.6087C11.567 23.828 9.2578 22.814 7.89113 21.2102C7.19613 20.4164 6.71696 19.4982 6.45946 18.5801C6.37196 18.325 6.35363 18.1308 6.29863 17.9074C6.2703 17.6742 6.22196 17.4385 6.21696 17.2167C6.1778 16.7699 6.20363 16.3352 6.24863 15.9232C6.34446 15.0961 6.61446 14.3697 6.91696 13.7693C7.22446 13.168 7.5778 12.6919 7.8978 12.3279C8.22613 11.9688 8.51113 11.7137 8.71446 11.5512C8.9203 11.3919 9.0303 11.3066 9.0303 11.3066L9.32946 11.6901C9.32946 11.6901 9.2303 11.7722 9.04446 11.9265C8.86113 12.0834 8.60613 12.3287 8.3153 12.6684C7.74863 13.3492 7.07113 14.4908 6.9053 15.9972C6.8703 16.3709 6.85113 16.7634 6.89196 17.1672C6.89863 17.3719 6.9453 17.5628 6.96863 17.7668C7.02196 17.9707 7.0578 18.2242 7.12696 18.3965C7.37113 19.222 7.8128 20.0402 8.44363 20.7438C9.06863 21.4531 9.89363 22.0332 10.8261 22.3972C11.7503 22.7718 12.797 22.927 13.7911 22.8222C14.8245 22.7125 15.7961 22.4175 16.6445 21.8813C17.4878 21.3556 18.187 20.6439 18.6836 19.8476C19.1695 19.044 19.4536 18.1641 19.5428 17.3142C19.5953 16.8925 19.5903 16.4619 19.547 16.08C19.5245 15.7152 19.412 15.2318 19.3228 14.9239C18.8861 13.4768 18.017 12.479 17.3395 11.9087C16.9978 11.6202 16.6978 11.4277 16.4986 11.3058C16.2811 11.1831 16.1645 11.1173 16.1645 11.1173L16.4278 10.6469Z" fill="#181716"/>
</svg>
