<svg width="25" height="27" viewBox="0 0 25 27" fill="none" xmlns="http://www.w3.org/2000/svg">
<path fill-rule="evenodd" clip-rule="evenodd" d="M13.8769 11.3966C13.8769 11.3966 14.9778 12.3085 14.8028 13.5242C14.6386 14.6636 13.2186 15.5616 11.7628 15.857C10.3069 16.1515 8.09611 15.8295 7.77027 15.7256C7.44444 15.6226 6.93027 16.0339 6.88861 16.519C6.84694 17.0041 9.89027 25.2027 9.89027 25.2027C9.89027 25.2027 12.7253 25.8389 15.9819 24.2359C19.4703 22.5196 19.9611 20.6007 19.9611 20.6007L16.8394 11.7426L15.8803 11.1434L14.7586 10.9236L13.8769 11.3966Z" fill="#B0A7D2"/>
<path fill-rule="evenodd" clip-rule="evenodd" d="M8.41132 18.3608L8.14966 17.7795C8.14966 17.7795 11.418 17.546 12.9397 17.0034C14.6638 16.3895 16.3405 14.8955 16.3405 14.8955C16.3405 14.8955 17.7597 19.0571 17.8363 19.349C17.9122 19.6409 16.4072 20.6481 15.9338 20.9374C15.4597 21.2267 13.5863 22.3687 12.0272 22.4442C10.4688 22.5206 9.74299 22.5284 9.74299 22.5284L8.41132 18.3608Z" fill="white"/>
<mask id="mask0" mask-type="alpha" maskUnits="userSpaceOnUse" x="4" y="0" width="10" height="16">
<path fill-rule="evenodd" clip-rule="evenodd" d="M13.989 0.025177H4.16675V15.2557H13.989V0.025177Z" fill="white"/>
</mask>
<g mask="url(#mask0)">
<path fill-rule="evenodd" clip-rule="evenodd" d="M13.5573 12.6487L8.789 0.746985L9.0965 1.01744C9.01817 0.997692 8.91234 0.976227 8.81734 0.960773C8.72067 0.943601 8.6215 0.929005 8.52317 0.917843C8.32567 0.89552 8.1265 0.880066 7.92984 0.879207C7.5365 0.878348 7.14317 0.916985 6.78734 1.03204L6.654 1.07668C6.62567 1.08527 6.56067 1.11446 6.5165 1.13249C6.4115 1.1737 6.33484 1.21406 6.2465 1.25441C6.069 1.34456 5.894 1.44244 5.72484 1.55234C5.55567 1.6631 5.3915 1.78244 5.23484 1.91123C5.15567 1.97476 5.07984 2.04173 5.00484 2.10956C4.93234 2.17567 4.85484 2.25209 4.79734 2.31305V2.3139L4.86567 1.98077L8.63067 14.6853L8.46984 14.5316C8.704 14.5865 8.94984 14.6338 9.1915 14.6732C9.434 14.7119 9.67817 14.7437 9.9215 14.7668C10.1657 14.7857 10.4098 14.8029 10.6507 14.7977C10.7715 14.8003 10.8898 14.7874 11.0098 14.7823C11.1257 14.766 11.2465 14.76 11.3582 14.7316C11.474 14.7136 11.579 14.6767 11.6865 14.6432C11.7915 14.6003 11.9207 14.5505 12.0273 14.5015C12.2448 14.4054 12.4632 14.2912 12.6715 14.1684C12.879 14.043 13.079 13.9048 13.2648 13.752C13.3582 13.6756 13.6573 13.4231 13.7023 13.2325L13.7923 13.339C13.9132 13.4807 13.9157 13.6919 13.7998 13.8378C13.7057 13.958 13.5998 14.0594 13.5415 14.1074C13.3357 14.2766 13.119 14.4268 12.894 14.5625C12.6673 14.6956 12.439 14.8158 12.1957 14.9231C12.074 14.9789 11.9673 15.0193 11.8398 15.0716C11.7073 15.1146 11.5748 15.1583 11.4423 15.1798C11.3098 15.2116 11.179 15.2193 11.0473 15.2373C10.9165 15.2433 10.7848 15.2571 10.6557 15.2545C10.3957 15.2605 10.139 15.2425 9.88317 15.2219C9.62734 15.1987 9.374 15.1652 9.12234 15.1249C8.869 15.0845 8.62234 15.0373 8.36734 14.9772L8.2465 14.9489L8.2065 14.8226L4.22484 2.18855L4.1665 2.00481L4.29317 1.85628L4.294 1.85456C4.38067 1.75411 4.45567 1.67683 4.53817 1.59269C4.62067 1.51198 4.70317 1.43299 4.78984 1.35744C4.96067 1.20633 5.13984 1.0638 5.32567 0.930722C5.51234 0.7985 5.7065 0.678298 5.90817 0.565823C6.0115 0.512591 6.12484 0.450773 6.21734 0.410419C6.2715 0.386379 6.304 0.368348 6.37484 0.339156L6.54317 0.274762C6.99567 0.109055 7.4615 0.0463787 7.91817 0.0283484C8.14734 0.0197625 8.37484 0.0283484 8.6015 0.0446615C8.71567 0.0523888 8.82817 0.064409 8.94234 0.0790049C9.05817 0.0944595 9.16317 0.109914 9.29234 0.13653H9.29317L9.51734 0.188904L9.6015 0.406985L13.9157 11.5308C14.0165 11.7927 14.0265 11.9661 13.8615 12.3207C13.7248 12.6126 13.5573 12.6487 13.5573 12.6487Z" fill="#181716"/>
</g>
<path fill-rule="evenodd" clip-rule="evenodd" d="M10.4424 18.7127C10.7832 18.6724 11.1249 18.6294 11.4657 18.5711C11.6366 18.5436 11.8057 18.5118 11.9782 18.4783C12.1532 18.4423 12.3266 18.4054 12.4882 18.3633C12.6607 18.3221 12.8366 18.2671 13.0057 18.2113C13.1757 18.1521 13.3424 18.0885 13.5049 18.0173C13.6691 17.9494 13.8282 17.8713 13.9857 17.7923C14.1432 17.7125 14.2982 17.6292 14.4507 17.5416C14.7557 17.3682 15.0532 17.1827 15.3432 16.987C15.4882 16.8891 15.6316 16.7886 15.7716 16.6839C15.7916 16.6693 15.8116 16.6538 15.8316 16.6392C15.8316 16.6392 16.7957 19.185 16.8791 19.4563C16.9424 19.6649 16.9349 19.8358 16.9349 19.8358C16.9557 19.8607 17.0524 19.8486 17.1941 19.7138C17.3257 19.5885 17.4249 19.3343 17.3541 19.1223L16.3016 15.9678L16.1532 15.5265L15.7782 15.8133V15.8141C15.6532 15.9103 15.5149 16.0108 15.3791 16.1052L14.9649 16.3868C14.6866 16.5706 14.4024 16.744 14.1141 16.9054C13.8257 17.0694 13.5291 17.2111 13.2316 17.3424C13.0824 17.4077 12.9316 17.4661 12.7807 17.5193C12.6282 17.5708 12.4799 17.6189 12.3232 17.6567C12.1566 17.7005 11.9974 17.7348 11.8407 17.7683C11.6807 17.8001 11.5166 17.8318 11.3532 17.8593C11.0266 17.9168 10.6949 17.9598 10.3641 18.001C10.0324 18.0422 9.69824 18.0636 9.3649 18.0946C9.03157 18.1237 8.69407 18.1443 8.3649 18.1564L7.8999 18.1735L9.62407 22.8477L9.80157 22.8485C10.1166 22.8477 10.4116 22.8391 10.7207 22.8236C11.0282 22.8082 11.3307 22.7884 11.6391 22.7584C11.9466 22.7301 12.2516 22.6931 12.5591 22.6451C12.8666 22.5978 13.1716 22.536 13.4782 22.4596C13.6307 22.4175 13.7832 22.3772 13.9349 22.3222C14.0874 22.269 14.2382 22.2106 14.3782 22.1445C14.6724 22.0088 14.9441 21.8586 15.2141 21.6963C15.6182 21.4516 15.9324 21.2662 16.3874 20.897C16.5857 20.7364 16.6366 20.4514 16.4866 20.2427L16.4641 20.2153C16.0607 20.6437 15.5074 20.9863 14.9866 21.2859C14.7274 21.4344 14.4574 21.5735 14.1932 21.6877C14.0549 21.7495 13.9191 21.7968 13.7824 21.8414C13.6457 21.8869 13.5024 21.9213 13.3599 21.9573C13.0724 22.0217 12.7799 22.0741 12.4841 22.1119C12.1882 22.1514 11.8899 22.1797 11.5899 22.2003C11.2907 22.2226 10.9899 22.2338 10.6899 22.2424C10.4582 22.2484 10.2257 22.2492 9.9949 22.2467L8.84324 18.845C9.0349 18.8347 9.22657 18.8226 9.41824 18.8089C9.7599 18.784 10.1016 18.7522 10.4424 18.7127Z" fill="#181716"/>
<path fill-rule="evenodd" clip-rule="evenodd" d="M7.4874 14.3226C7.4874 14.3226 7.33656 14.3346 7.11573 14.4763C6.88656 14.624 6.5574 14.8592 6.24573 15.2344C6.17156 15.3246 6.08906 15.4405 6.03323 15.5349L6.00406 15.5864C5.99573 15.6019 5.9949 15.607 5.98906 15.6182C5.98156 15.6354 5.96823 15.6654 5.95906 15.6903C5.9399 15.7418 5.92406 15.7968 5.9124 15.8535C5.88823 15.9668 5.88406 16.0896 5.9049 16.2141C5.9199 16.3119 5.99156 16.5249 6.04323 16.7078C6.27156 17.4616 6.51406 18.3167 6.78156 19.2483C7.05156 20.179 7.34406 21.187 7.65323 22.2534C7.81156 22.7848 7.97323 23.3309 8.1399 23.889C8.22406 24.1663 8.3099 24.447 8.39656 24.7304C8.48406 25.0043 8.57906 25.3134 8.66823 25.5452L8.68406 25.5881C8.67323 25.5692 8.71406 25.6456 8.66156 25.5486L8.66906 25.5606L8.68406 25.5838L8.6999 25.6079C8.70406 25.6122 8.69906 25.5993 8.69823 25.5967C8.69323 25.5873 8.68656 25.5787 8.67823 25.5735C8.67823 25.5735 8.70323 25.5881 8.71406 25.5976L8.7799 25.631C8.88073 25.6757 9.0049 25.716 9.13573 25.7487C9.3974 25.8148 9.68406 25.856 9.9724 25.886C10.5524 25.9453 11.1532 25.9522 11.7557 25.9281C12.9591 25.8706 14.1941 25.6894 15.3224 25.2687C15.3941 25.2438 15.4616 25.2129 15.5307 25.1854L15.6291 25.1442L15.7366 25.0944C15.8774 25.0275 16.0282 24.9639 16.1616 24.8935C16.4316 24.7596 16.7024 24.6128 16.9691 24.4591C17.4999 24.1491 18.0107 23.804 18.4849 23.4253C18.9532 23.0476 19.4124 22.632 19.7266 22.183C19.7657 22.1272 19.7924 22.0731 19.8266 22.019C19.8432 21.9915 19.8474 21.9692 19.8591 21.9443C19.8657 21.9237 19.8874 21.8902 19.8832 21.8799C19.8841 21.8653 19.8882 21.8524 19.8941 21.8387C19.8949 21.8292 19.8966 21.9091 19.8949 21.8679L19.8932 21.8533L19.8891 21.8249L19.8816 21.7674C19.8741 21.6833 19.8541 21.6317 19.8391 21.5691C19.8132 21.4575 19.7707 21.3063 19.7299 21.1621C19.6907 21.0187 19.6457 20.8745 19.6024 20.7302C19.2516 19.5806 18.8741 18.4713 18.5182 17.4221C18.1582 16.372 17.8174 15.3804 17.5032 14.4643C17.3449 14.0066 17.1924 13.5688 17.0482 13.1515C16.9749 12.9437 16.9041 12.7402 16.8349 12.5428C16.7616 12.3393 16.7124 12.1607 16.6291 12.0319C16.5466 11.8945 16.4407 11.7786 16.3224 11.6902C16.2624 11.6464 16.2007 11.6086 16.1366 11.5777C16.0716 11.5451 16.0132 11.5262 15.9282 11.497C15.6391 11.406 15.3499 11.3562 15.0924 11.3347C14.5716 11.2935 14.1557 11.3493 13.8766 11.3965C13.7374 11.4232 13.6299 11.4446 13.5591 11.4627C13.4866 11.4798 13.4499 11.4884 13.4499 11.4884C13.4132 11.3467 13.3774 11.2042 13.3407 11.0617C13.3791 11.0514 13.4174 11.0411 13.4557 11.0308C13.5316 11.0093 13.6457 10.9818 13.7957 10.9484C14.0949 10.8883 14.5432 10.8118 15.1241 10.8393C15.4149 10.8539 15.7324 10.8994 16.0799 11.0025C16.1524 11.0256 16.2566 11.0574 16.3474 11.1012C16.4407 11.1441 16.5316 11.1965 16.6191 11.2583C16.7932 11.3828 16.9491 11.5468 17.0724 11.7434C17.1032 11.7924 17.1307 11.843 17.1582 11.8962L17.1982 11.983L17.2266 12.0542C17.2632 12.1512 17.2999 12.25 17.3374 12.3504C17.4099 12.547 17.4849 12.7488 17.5616 12.9557C17.7149 13.3704 17.8749 13.8057 18.0424 14.2608C18.3766 15.1709 18.7366 16.1574 19.1041 17.2066C19.4716 18.2566 19.8599 19.3608 20.2282 20.5259C20.2741 20.6718 20.3216 20.8169 20.3641 20.9681C20.4074 21.1175 20.4524 21.2608 20.4957 21.4489C20.5157 21.5364 20.5407 21.6326 20.5474 21.7039L20.5557 21.7614L20.5599 21.7897L20.5616 21.8043C20.5607 21.7734 20.5657 21.8627 20.5641 21.8627C20.5566 21.9254 20.5466 21.9881 20.5341 22.0507C20.5232 22.1186 20.4999 22.152 20.4824 22.2044C20.4624 22.2499 20.4449 22.3032 20.4224 22.3427C20.3766 22.4208 20.3332 22.5058 20.2841 22.577C19.8899 23.148 19.4116 23.5739 18.9141 23.9886C18.4132 24.3973 17.8807 24.7656 17.3249 25.0979C17.0466 25.2618 16.7632 25.4198 16.4691 25.5701C16.3224 25.6482 16.1824 25.7083 16.0382 25.7787L15.9316 25.8294L15.8116 25.8817C15.7349 25.9135 15.6591 25.9487 15.5807 25.977C14.3441 26.4518 13.0582 26.6485 11.7924 26.724C11.1582 26.7566 10.5282 26.7566 9.89823 26.7C9.58323 26.6699 9.2699 26.6296 8.94906 26.5532C8.78823 26.5137 8.62573 26.4664 8.45323 26.3909L8.31906 26.3239C8.26823 26.2904 8.22906 26.2681 8.1699 26.2217C8.13406 26.1908 8.09906 26.1565 8.0674 26.1213C8.05323 26.105 8.03323 26.0809 8.02573 26.0706L8.0099 26.0475L7.99406 26.0234L7.98656 26.0123C7.9274 25.9075 7.96656 25.9736 7.95156 25.9461L7.92573 25.8835C7.7949 25.552 7.7149 25.2859 7.6174 24.994C7.52656 24.7089 7.4374 24.4264 7.34823 24.1474C7.17656 23.5893 7.0074 23.0424 6.84406 22.5109C6.52323 21.4454 6.2199 20.4392 5.94073 19.5093C5.66323 18.5795 5.40823 17.7278 5.19823 16.9679C5.1474 16.7704 5.0874 16.6228 5.04156 16.3566C5.0049 16.117 5.01573 15.8784 5.0649 15.6586C5.08906 15.5478 5.1224 15.4422 5.16656 15.3435C5.18823 15.2928 5.20906 15.2499 5.2374 15.1966L5.27906 15.1237L5.31073 15.0739C5.42073 14.9064 5.51823 14.7871 5.62656 14.6652C6.09323 14.1578 6.9674 13.61 7.4874 14.3226Z" fill="#181716"/>
</svg>
