<svg width="25" height="27" viewBox="0 0 25 27" fill="none" xmlns="http://www.w3.org/2000/svg">
<path fill-rule="evenodd" clip-rule="evenodd" d="M8.74786 16.1957C7.78036 14.8915 7.59703 15.2482 7.59703 15.2482C7.59703 15.2482 4.05786 16.4423 2.3312 14.259C0.60453 12.0757 -0.317136 8.97401 1.08536 7.05401C2.48786 5.13401 4.1687 4.47401 5.6037 4.34818C7.0387 4.22151 11.0395 5.15985 13.1512 5.18151C17.3595 5.22401 20.5412 4.95818 20.5412 4.95818L21.3254 9.14318C21.3254 9.14318 16.6687 10.3948 14.8637 11.7948C13.0587 13.1948 12.0254 14.5015 12.3012 15.9315C12.3012 15.9315 11.6195 17.349 13.6579 20.1932C15.1004 22.2048 15.222 23.4223 14.6662 23.754C14.1112 24.0857 13.0412 24.4723 11.9112 22.7232C10.7812 20.974 8.74786 16.1957 8.74786 16.1957Z" fill="#F6CEA9"/>
<path fill-rule="evenodd" clip-rule="evenodd" d="M22.8999 2.07834C22.8999 2.07834 22.9966 2.29834 23.1782 2.71168C23.3516 3.12834 23.5941 3.74584 23.8432 4.55084C24.0907 5.35668 24.3149 6.35668 24.4799 7.51918C24.4949 7.68251 24.5282 7.76668 24.5282 8.00001C24.5157 8.20501 24.4099 8.43251 24.1849 8.54751C23.8216 8.67501 23.5657 8.73418 23.2382 8.83418C22.6132 9.01584 21.9566 9.20668 21.2707 9.40668C19.8907 9.77501 18.4707 10.31 17.0107 11.0342C15.5399 11.7442 14.0949 12.615 12.5457 13.555C10.9741 14.4525 9.22573 15.1833 7.3999 15.6917C6.96656 15.815 6.4624 15.9767 5.94656 16.005C5.4349 16.0325 4.91073 16.0067 4.41406 15.8683C3.41573 15.6125 2.50406 15.0583 1.79906 14.3208C1.08823 13.605 0.565731 12.6433 0.278231 11.7175C-0.0276025 10.73 -0.0667691 9.70918 0.0898976 8.71584C0.274064 7.73251 0.672398 6.78084 1.3224 6.02418C1.63656 5.64001 2.0149 5.31001 2.43156 5.04751C2.63323 4.91084 2.86073 4.79751 3.09573 4.69501C3.33573 4.58834 3.5049 4.54501 3.76323 4.46084C5.4799 3.95668 7.22906 3.62334 8.88156 3.51751C9.70906 3.45418 10.5282 3.46584 11.2841 3.46418C12.0491 3.45918 12.7882 3.43584 13.4957 3.39501C14.9116 3.31418 16.2032 3.16334 17.3282 2.94418C18.4407 2.73251 19.4182 2.41501 20.2224 2.21001C21.0257 1.99084 21.6574 1.81834 22.0882 1.70084C22.1907 1.65918 22.4032 1.65084 22.5082 1.70334C22.6299 1.74834 22.7099 1.81751 22.7657 1.87584C22.8207 1.93584 22.8524 1.98834 22.8766 2.03084C22.8899 2.05751 22.8966 2.07084 22.8966 2.07084L22.8999 2.07834ZM22.5216 2.26084C22.5216 2.26084 22.5149 2.24751 22.5016 2.22168C22.4957 2.21501 22.4824 2.19084 22.4582 2.16668C22.3982 2.12084 22.3549 2.06001 22.2049 2.11584C21.7766 2.24001 21.1474 2.42251 20.3474 2.65501C19.5407 2.87418 18.5941 3.20168 17.4299 3.44501C16.2799 3.68834 14.9674 3.86168 13.5332 3.96668C12.8157 4.02001 12.0682 4.05584 11.2932 4.07334C10.5099 4.08751 9.73573 4.08918 8.93156 4.16334C7.3174 4.29501 5.66156 4.63584 3.96073 5.16418C2.3499 5.59084 1.15406 7.12418 0.899898 8.85085C0.776564 9.70835 0.835731 10.6233 1.1024 11.4458C1.24823 11.9242 1.40156 12.2742 1.62406 12.6742C1.8474 13.055 2.1024 13.4208 2.41156 13.735C3.0074 14.3833 3.78073 14.8675 4.61573 15.0975C5.0324 15.2233 5.4674 15.2483 5.8949 15.235C6.32573 15.2192 6.72823 15.0975 7.1974 14.9733C8.99156 14.5075 10.6841 13.8333 12.2291 12.9875C13.7474 12.1025 15.2782 11.2167 16.7699 10.5308C18.2557 9.82335 19.7541 9.29084 21.1416 8.94751C21.8307 8.76001 22.4907 8.58084 23.1191 8.41001C23.4199 8.32668 23.7132 8.24584 23.9982 8.16751C24.0541 8.14418 24.1057 8.06418 24.1082 7.97251C24.1132 7.90668 24.0757 7.70084 24.0616 7.57584C23.9032 6.44001 23.6499 5.46668 23.4182 4.67834C23.1866 3.88751 22.9557 3.28168 22.7866 2.87418C22.6116 2.46918 22.5182 2.25334 22.5182 2.25334L22.5216 2.26084Z" fill="black"/>
<path fill-rule="evenodd" clip-rule="evenodd" d="M19.9969 2.48334C19.9969 2.48334 20.4461 3.71167 20.7761 4.9725C21.1236 6.22834 21.3228 7.52084 21.3228 7.52084L20.9228 7.58834C20.9228 7.58834 20.6853 6.33167 20.3011 5.10834C19.9336 3.88 19.4536 2.69584 19.4536 2.69584L19.9969 2.48334Z" fill="black"/>
<path fill-rule="evenodd" clip-rule="evenodd" d="M5.19067 9.51119L9.36234 8.58035L9.46151 8.93119L5.41651 10.3137L5.19067 9.51119Z" fill="black"/>
<path fill-rule="evenodd" clip-rule="evenodd" d="M4.69775 7.97243C4.69775 7.97243 4.94525 7.87409 5.34359 7.74159C5.73525 7.60993 6.26359 7.45909 6.79775 7.34159C7.86609 7.09909 8.94859 7.01743 8.94859 7.01743L8.99859 7.37826C8.99859 7.37826 7.95275 7.57493 6.95775 7.91909C6.46025 8.08743 5.97525 8.28493 5.62025 8.44909C5.27192 8.60993 5.03192 8.73576 5.03192 8.73576L4.69775 7.97243Z" fill="black"/>
<path fill-rule="evenodd" clip-rule="evenodd" d="M5.69043 11.057C5.69043 11.057 5.9521 11.0353 6.3446 11.002C6.73376 10.9628 7.2521 10.8862 7.7646 10.7745C8.79293 10.5603 9.7721 10.1495 9.7721 10.1495L9.92876 10.4787C9.92876 10.4787 8.9721 11.0095 7.9246 11.3512C7.4046 11.5262 6.87126 11.6662 6.46626 11.7528C6.06293 11.8312 5.79376 11.8837 5.79376 11.8837L5.69043 11.057Z" fill="black"/>
<path fill-rule="evenodd" clip-rule="evenodd" d="M2.97353 5.19868C2.97353 5.19868 2.92186 5.37284 2.83103 5.67701C2.78353 5.82951 2.72853 6.01368 2.68436 6.22451C2.63936 6.43618 2.57103 6.67118 2.53519 6.93701C2.43769 7.46451 2.37853 8.08868 2.38269 8.75701C2.40103 9.08951 2.40269 9.43701 2.46519 9.78201C2.50436 10.1312 2.59353 10.4762 2.67436 10.8228C2.78436 11.1612 2.88603 11.5028 3.03269 11.822C3.15769 12.1503 3.33603 12.4487 3.49186 12.7437C3.83436 13.3187 4.20686 13.8237 4.56436 14.2262C4.73186 14.4362 4.91353 14.6037 5.06353 14.7628C5.21269 14.9228 5.35353 15.0512 5.47103 15.1562C5.70353 15.367 5.83686 15.4878 5.83686 15.4878L5.65603 15.6995C5.65603 15.6995 5.52019 15.577 5.28103 15.3628C5.16103 15.257 5.01603 15.1262 4.86186 14.9637C4.70769 14.8012 4.52103 14.6303 4.34686 14.4162C3.97853 14.0053 3.59019 13.4878 3.23353 12.8953C3.06936 12.5912 2.88353 12.2828 2.75186 11.9428C2.59769 11.6128 2.48936 11.2587 2.37353 10.907C2.28686 10.5478 2.19269 10.1895 2.14936 9.82701C2.08269 9.46868 2.07853 9.10868 2.05769 8.76284C2.04936 8.07034 2.10603 7.42451 2.20353 6.88034C2.23853 6.60618 2.30853 6.35951 2.35436 6.13868C2.40019 5.91618 2.45436 5.73118 2.50019 5.57951C2.58936 5.27451 2.64103 5.10034 2.64103 5.10034L2.97353 5.19868Z" fill="black"/>
<path fill-rule="evenodd" clip-rule="evenodd" d="M14.1938 12.3245C14.1938 12.3245 13.8763 12.6704 13.4154 13.3495C13.1896 13.6895 12.9229 14.1137 12.7096 14.6304C12.5096 15.1279 12.3146 15.8129 12.6679 16.3045C13.0913 16.847 13.6554 17.3679 14.2504 17.932C14.8429 18.4987 15.4888 19.0862 16.0454 19.8295C16.3196 20.192 16.5696 20.6462 16.6871 21.1095C16.8104 21.5779 16.8888 22.0387 16.9538 22.512C17.0171 22.9829 17.0638 23.4579 17.0988 23.9354C17.1113 24.1887 17.1429 24.3795 17.1321 24.6854C17.0971 25.0137 16.9188 25.2837 16.6788 25.4645C16.5596 25.5545 16.4238 25.622 16.2813 25.6645C16.2088 25.6862 16.1404 25.7004 16.0604 25.7112L15.8804 25.7295C15.6088 25.7487 15.3563 25.7337 15.0979 25.687C14.5879 25.5937 14.0963 25.3654 13.7096 25.012C13.0204 24.277 12.4871 23.5679 11.9329 22.8412C10.8571 21.3929 9.95876 19.9645 9.38876 18.5954C9.24959 18.2537 9.14376 17.8937 9.06959 17.577C8.99876 17.2579 8.91626 17.1279 8.71543 16.9379C8.34793 16.5937 7.89876 16.3787 7.53876 16.2212C7.17209 16.0654 6.86959 15.9704 6.66459 15.9087C6.46209 15.8537 6.35376 15.8245 6.35376 15.8245L6.50959 15.167C6.50959 15.167 6.63043 15.2012 6.85876 15.2654C7.07959 15.3345 7.40293 15.4395 7.80209 15.6145C8.19793 15.7962 8.68543 16.0204 9.16709 16.4762C9.40709 16.6695 9.64126 17.1012 9.68709 17.427C9.75793 17.7454 9.84293 18.0454 9.96876 18.3679C10.4796 19.6479 11.3496 21.0787 12.3896 22.5045C12.9079 23.2045 13.4888 23.9745 14.0738 24.6145C14.3779 24.8987 14.7746 25.0904 15.1954 25.172C15.6013 25.2404 16.1046 25.2629 16.3746 25.0562C16.5179 24.9554 16.6154 24.7895 16.6321 24.642C16.6429 24.4729 16.6163 24.1887 16.6063 23.9687C16.5754 23.4995 16.5346 23.0329 16.4779 22.5737C16.3554 21.6462 16.2263 20.7679 15.6813 20.0954C15.1729 19.3995 14.5421 18.8079 13.9579 18.2387C13.3721 17.6704 12.7971 17.1329 12.3463 16.5412C12.0929 16.1954 12.0521 15.7704 12.0946 15.4254C12.1338 15.0712 12.2446 14.7637 12.3588 14.4854C12.5954 13.9304 12.8763 13.4945 13.1138 13.1437C13.5971 12.4479 13.9304 12.0912 13.9304 12.0912L14.1938 12.3245Z" fill="black"/>
</svg>
