<svg width="30" height="26" viewBox="0 0 30 26" fill="none" xmlns="http://www.w3.org/2000/svg">
<path fill-rule="evenodd" clip-rule="evenodd" d="M23.0614 22.5802C23.0614 22.5802 24.7434 18.3702 27.2664 12.0542C27.5674 11.2802 27.9404 10.4092 28.2194 9.62517C28.2884 9.34717 28.2044 8.95617 27.9784 8.72217C27.8674 8.60117 27.7284 8.51217 27.5774 8.46917C27.4994 8.44817 27.4254 8.43917 27.3374 8.43717L26.9734 8.43917C25.0254 8.44617 22.9704 8.45417 20.8454 8.46217C16.5954 8.47917 12.0614 8.49717 7.52736 8.51417C6.39436 8.51817 5.26036 8.52217 4.13136 8.52717L3.28636 8.53017C3.01636 8.53117 2.65936 8.52217 2.61236 8.57217C2.30036 8.66617 2.06336 9.02017 2.05836 9.37517C2.03736 9.64817 2.33336 10.2822 2.48736 10.7792C2.67136 11.3002 2.85336 11.8192 3.03536 12.3352C3.39836 13.3662 3.75736 14.3852 4.11036 15.3882C4.81636 17.3922 5.49936 19.3302 6.14536 21.1672C6.32536 21.7072 6.39536 21.8922 6.64736 22.0382C6.76836 22.1052 6.86736 22.1322 7.02536 22.1302C7.25836 22.1292 7.48936 22.1282 7.71836 22.1272C8.63536 22.1242 9.52036 22.1212 10.3704 22.1172C17.1714 22.0912 21.7054 22.0742 21.7054 22.0742V23.3572C21.7054 23.3572 17.1714 23.3402 10.3704 23.3132C9.52036 23.3102 8.63536 23.3072 7.71836 23.3032C7.48936 23.3022 7.25836 23.3012 7.02536 23.3002C6.71836 23.3072 6.34336 23.2202 6.05736 23.0422C5.76236 22.8672 5.51736 22.6132 5.35436 22.3162C5.17336 21.9652 5.15036 21.7882 5.05636 21.5462C4.42336 19.7042 3.75636 17.7612 3.06536 15.7512C2.72036 14.7462 2.36936 13.7242 2.01436 12.6902C1.83636 12.1732 1.65736 11.6522 1.47836 11.1302L1.20736 10.3432C1.13036 10.1232 0.979357 9.72617 1.00236 9.34417C1.02436 8.58817 1.50836 7.83217 2.28536 7.58217C2.77536 7.43917 2.99736 7.51117 3.28636 7.49417L4.13136 7.49717C5.26036 7.50117 6.39436 7.50617 7.52736 7.51017C12.0614 7.52817 16.5954 7.54517 20.8454 7.56217C22.9704 7.57017 25.0254 7.57817 26.9734 7.58517L27.3374 7.58717C27.4924 7.58917 27.6574 7.61017 27.8114 7.65417C28.1224 7.74517 28.3964 7.92717 28.6024 8.15717C29.0154 8.62517 29.1714 9.24617 29.0174 9.85717C28.6774 10.7962 28.3374 11.5512 28.0184 12.3582C25.4464 18.6542 23.7324 22.8512 23.7324 22.8512L23.0614 22.5802Z" fill="black"/>
<path fill-rule="evenodd" clip-rule="evenodd" d="M22.2884 11.7878H22.2814L7.45839 12.3808C7.39239 12.3838 7.35539 12.4218 7.34039 12.4448C7.32339 12.4668 7.29939 12.5138 7.31639 12.5768L7.63039 13.6718C7.64839 13.7378 7.70939 13.7828 7.77739 13.7828H21.6924C21.7574 13.7828 21.8154 13.7418 21.8374 13.6808L22.4334 11.9928C22.4564 11.9258 22.4304 11.8748 22.4124 11.8508C22.3944 11.8268 22.3554 11.7878 22.2884 11.7878ZM21.6924 14.5328H7.77739C7.37639 14.5328 7.01839 14.2638 6.90939 13.8768L6.59639 12.7828C6.51839 12.5158 6.56839 12.2318 6.73139 12.0048C6.89439 11.7788 7.14939 11.6418 7.42939 11.6318L22.2524 11.0388C22.5614 11.0298 22.8384 11.1638 23.0164 11.4058C23.1934 11.6478 23.2404 11.9608 23.1404 12.2438L22.5444 13.9308C22.4174 14.2908 22.0754 14.5328 21.6924 14.5328Z" fill="black"/>
<path fill-rule="evenodd" clip-rule="evenodd" d="M20.6713 18.9568C20.7473 18.9558 20.8093 18.9108 20.8253 18.8378L21.1863 17.3028C21.2003 17.2398 21.1743 17.1938 21.1563 17.1718C21.1393 17.1498 21.1013 17.1138 21.0353 17.1138H21.0343L8.94227 17.1998C8.87527 17.2008 8.83627 17.2388 8.81927 17.2618C8.80227 17.2848 8.77627 17.3318 8.79427 17.3958L9.10527 18.4808C9.12327 18.5448 9.18127 18.5898 9.24727 18.5918L20.6713 18.9568ZM20.6763 19.7068C20.6663 19.7068 20.6573 19.7068 20.6483 19.7068L9.22427 19.3418C8.83027 19.3298 8.49227 19.0658 8.38427 18.6868L8.07327 17.6018C7.99527 17.3278 8.04827 17.0398 8.21927 16.8118C8.39027 16.5838 8.65127 16.4518 8.93627 16.4498L21.0293 16.3638C21.3413 16.3558 21.5693 16.4868 21.7423 16.7048C21.9163 16.9218 21.9803 17.2028 21.9163 17.4748L21.5563 19.0098C21.4603 19.4178 21.0923 19.7068 20.6763 19.7068Z" fill="black"/>
<path fill-rule="evenodd" clip-rule="evenodd" d="M6.56763 7.71069C6.56763 7.71069 7.30063 6.82169 8.45563 5.53869C9.03963 4.90169 9.72563 4.16369 10.4846 3.38869C10.8696 3.00669 11.2726 2.61669 11.6996 2.22869C11.9156 2.03569 12.1306 1.84169 12.3696 1.65369L12.5476 1.51169L12.5926 1.47669L12.6476 1.43669L12.7356 1.37469C12.8726 1.28169 13.0346 1.18169 13.2126 1.11169C13.3916 1.03969 13.6206 0.975689 13.8896 1.00969C14.1626 1.03969 14.3996 1.19269 14.5426 1.32469C14.6176 1.39169 14.6776 1.45569 14.7306 1.51269L14.7686 1.55469L14.8106 1.60469L14.8266 1.62669C14.8456 1.65169 14.8676 1.67669 14.9146 1.75569C15.0606 2.01069 15.0886 2.23569 15.0826 2.45769C15.0226 3.32069 14.4316 3.80569 14.0996 4.16869C13.3526 4.95769 12.6176 5.64769 11.9846 6.23669C11.3566 6.83069 10.8056 7.29669 10.4246 7.62669C10.0426 7.95569 9.81463 8.13469 9.81463 8.13469L9.40563 7.69369C9.40563 7.69369 10.1936 6.86469 11.3746 5.61969C11.9606 4.99569 12.6436 4.26769 13.3756 3.48769C13.5406 3.30269 13.7686 3.07069 13.8636 2.92669C13.9796 2.75869 14.0576 2.55369 14.0566 2.42069C14.0616 2.36169 14.0326 2.29769 14.0376 2.30569C14.0526 2.32069 14.0306 2.28969 14.0056 2.25869L13.9886 2.23769L13.9806 2.22769C13.9736 2.21969 14.0236 2.27969 14.0006 2.25169L13.9966 2.24769L13.9636 2.20969C13.9206 2.16169 13.8826 2.12169 13.8516 2.09269C13.7846 2.03369 13.7666 2.02869 13.7516 2.02669C13.7346 2.02269 13.6746 2.02569 13.5896 2.05969C13.4996 2.09369 13.4146 2.14269 13.3126 2.20769L13.2236 2.26869C13.2146 2.27469 13.1826 2.29669 13.1916 2.29069L13.1516 2.32169L12.9926 2.44469C12.7796 2.60669 12.5686 2.79069 12.3616 2.97069C11.9456 3.33469 11.5456 3.71369 11.1596 4.08069C10.3776 4.80769 9.66263 5.50869 9.05463 6.11369C7.82763 7.31569 7.01063 8.11769 7.01063 8.11769L6.56763 7.71069Z" fill="black"/>
<path fill-rule="evenodd" clip-rule="evenodd" d="M22.9531 8.30022C22.9531 8.30022 22.1351 7.70422 20.9081 6.80922C20.2961 6.36122 19.5801 5.84321 18.8021 5.30522C18.4141 5.03622 18.0131 4.75822 17.6061 4.47622C17.4001 4.33922 17.1931 4.20122 16.9851 4.06322L16.6701 3.86222C16.5771 3.80322 16.4221 3.70422 16.4261 3.72122C16.3171 3.68122 16.1871 3.69422 16.0881 3.75622C16.0381 3.77222 15.8041 4.04122 15.7461 4.12822C15.6941 4.21922 15.6831 4.34022 15.7271 4.45422C15.7491 4.51022 15.7831 4.56422 15.8271 4.60922C15.8491 4.63222 15.8721 4.65422 15.9001 4.67222L16.0431 4.77422C16.8241 5.31622 17.5401 5.84222 18.1541 6.29222C19.3841 7.18822 20.1831 7.81722 20.1831 7.81722L19.8431 8.31222C19.8431 8.31222 18.9741 7.78722 17.7011 6.95222C17.0641 6.53622 16.3201 6.05222 15.5371 5.51222L15.3871 5.41022C15.3151 5.36122 15.2471 5.30322 15.1841 5.24122C15.0581 5.11522 14.9551 4.96222 14.8851 4.79122C14.7431 4.45222 14.7501 4.03122 14.9411 3.68322C14.9691 3.63622 15.0021 3.58222 15.0301 3.54322L15.0871 3.46822L15.2261 3.30522C15.2821 3.23122 15.4591 3.04322 15.6191 2.96022C15.9531 2.76122 16.3781 2.72422 16.7451 2.86422C16.9901 2.96422 17.0381 3.02522 17.1601 3.09622L17.4821 3.30822C17.6931 3.45222 17.9031 3.59522 18.1121 3.73822C18.5251 4.02522 18.9281 4.31322 19.3131 4.59722C20.0781 5.17122 20.7791 5.72122 21.3771 6.19622C22.5611 7.16222 23.3271 7.82922 23.3271 7.82922L22.9531 8.30022Z" fill="black"/>
</svg>
