<svg width="24" height="21" viewBox="0 0 24 21" fill="none" xmlns="http://www.w3.org/2000/svg">
<path fill-rule="evenodd" clip-rule="evenodd" d="M12.4743 6.40971L2.26474 6.37549L1.45674 6.78849C1.45674 6.78849 1.28474 7.85162 2.12154 10.2683L4.28314 16.5118C4.28314 16.5118 3.43114 18.0763 8.12314 18.0763C12.8151 18.0763 17.5831 17.6179 18.3495 16.3686C19.1159 15.1201 20.9887 8.98955 21.2439 8.33305C21.4999 7.67735 20.8311 6.44392 19.7967 6.40971C18.7623 6.37549 12.4743 6.40971 12.4743 6.40971Z" fill="#B4E0F1"/>
<path fill-rule="evenodd" clip-rule="evenodd" d="M18.4491 17.9683C18.4491 17.9683 19.7947 14.6182 21.8131 9.59218C22.0539 8.97626 22.3523 8.28316 22.5755 7.65929C22.6307 7.43807 22.5635 7.12693 22.3827 6.94072C22.2939 6.84443 22.1827 6.77361 22.0619 6.73939C21.9995 6.72268 21.9403 6.71552 21.8699 6.71393L21.5787 6.71552C20.0203 6.72109 18.3763 6.72746 16.6763 6.73382C13.2763 6.74735 9.64913 6.76167 6.02193 6.7752C5.11553 6.77839 4.20833 6.78157 3.30513 6.78555L2.62913 6.78793C2.41313 6.78873 2.12753 6.78157 2.08993 6.82136C1.84033 6.89616 1.65073 7.17786 1.64673 7.46035C1.62993 7.67759 1.86673 8.1821 1.98993 8.57759C2.13713 8.99218 2.28273 9.40518 2.42833 9.81579C2.71873 10.6362 3.00593 11.4471 3.28833 12.2452C3.85313 13.8399 4.39953 15.3821 4.91633 16.8439C5.06033 17.2736 5.11633 17.4208 5.31793 17.537C5.41473 17.5903 5.49393 17.6118 5.62033 17.6102C5.80673 17.6094 5.99154 17.6086 6.17474 17.6078C6.90833 17.6054 7.61633 17.6031 8.29633 17.5999C13.7371 17.5792 17.3643 17.5657 17.3643 17.5657V18.5866C17.3643 18.5866 13.7371 18.5731 8.29633 18.5516C7.61633 18.5492 6.90833 18.5468 6.17474 18.5436C5.99154 18.5428 5.80673 18.542 5.62033 18.5413C5.37473 18.5468 5.07473 18.4776 4.84593 18.3359C4.60993 18.1967 4.41393 17.9946 4.28353 17.7582C4.13873 17.4789 4.12033 17.3381 4.04513 17.1455C3.53873 15.6797 3.00513 14.1336 2.45233 12.5341C2.17633 11.7344 1.89553 10.9211 1.61153 10.0983C1.46913 9.68687 1.32593 9.27228 1.18273 8.8569L0.965935 8.23064C0.904335 8.05557 0.783535 7.73966 0.801935 7.43568C0.819535 6.83409 1.20673 6.2325 1.82833 6.03356C2.22033 5.91976 2.39793 5.97706 2.62913 5.96353L3.30513 5.96592C4.20833 5.9691 5.11553 5.97308 6.02193 5.97626C9.64913 5.99059 13.2763 6.00412 16.6763 6.01764C18.3763 6.02401 20.0203 6.03037 21.5787 6.03595L21.8699 6.03754C21.9939 6.03913 22.1259 6.05584 22.2491 6.09085C22.4979 6.16327 22.7171 6.30809 22.8819 6.49112C23.2123 6.86353 23.3371 7.3577 23.2139 7.8439C22.9419 8.59112 22.6699 9.19191 22.4147 9.83409C20.3571 14.8442 18.9859 18.184 18.9859 18.184L18.4491 17.9683Z" fill="black"/>
<path fill-rule="evenodd" clip-rule="evenodd" d="M17.8308 9.3802H17.8252L5.96676 9.85208C5.91396 9.85447 5.88436 9.88471 5.87236 9.90301C5.85876 9.92052 5.83956 9.95792 5.85316 10.0081L6.10436 10.8794C6.11876 10.9319 6.16756 10.9677 6.22196 10.9677H17.354C17.406 10.9677 17.4524 10.9351 17.47 10.8866L17.9468 9.54333C17.9652 9.49002 17.9444 9.44943 17.93 9.43033C17.9156 9.41124 17.8844 9.3802 17.8308 9.3802ZM17.354 11.5646H6.22196C5.90116 11.5646 5.61476 11.3505 5.52756 11.0425L5.27716 10.172C5.21476 9.95952 5.25476 9.73352 5.38516 9.55288C5.51556 9.37304 5.71956 9.26403 5.94356 9.25607L17.802 8.78418C18.0492 8.77543 18.2708 8.88365 18.4132 9.07623C18.5548 9.2688 18.5924 9.51787 18.5124 9.74307L18.0356 11.0855C17.934 11.372 17.6604 11.5646 17.354 11.5646Z" fill="black"/>
<path fill-rule="evenodd" clip-rule="evenodd" d="M16.537 15.085C16.5978 15.0866 16.6474 15.0492 16.6602 14.9903L16.949 13.7688C16.9602 13.7187 16.9394 13.682 16.925 13.6645C16.9114 13.647 16.881 13.6184 16.8282 13.6184H16.8274L7.15376 13.6868C7.10016 13.6876 7.06896 13.7179 7.05536 13.7362C7.04176 13.7545 7.02096 13.7919 7.03536 13.8428L7.28416 14.7062C7.29856 14.7571 7.34496 14.7929 7.39776 14.7945L16.537 15.085ZM16.541 15.6818C16.533 15.6818 16.5258 15.6818 16.5186 15.6818L7.37937 15.3913C7.06417 15.3818 6.79377 15.1717 6.70737 14.8701L6.45857 14.0067C6.39617 13.7887 6.43857 13.5595 6.57537 13.3781C6.71217 13.1966 6.92097 13.0916 7.14897 13.09L16.8234 13.0216C17.073 12.9921 17.2554 13.1195 17.3938 13.2929C17.533 13.4656 17.5842 13.6892 17.533 13.9057L17.245 15.1271C17.1682 15.4518 16.8738 15.6818 16.541 15.6818Z" fill="black"/>
<path fill-rule="evenodd" clip-rule="evenodd" d="M5.25415 6.13582C5.25415 6.13582 5.84055 5.42839 6.76455 4.40744C7.23175 3.90054 7.78055 3.31327 8.38775 2.69656C8.69575 2.39258 9.01815 2.08224 9.35975 1.77348C9.53255 1.6199 9.70455 1.46553 9.89575 1.31592L10.0382 1.20293L10.0742 1.17508L10.1182 1.14325L10.1886 1.09391C10.2982 1.0199 10.4278 0.940327 10.5702 0.884624C10.7134 0.82733 10.8966 0.776402 11.1118 0.803457C11.3302 0.82733 11.5198 0.949081 11.6342 1.05412C11.6942 1.10744 11.7422 1.15836 11.7846 1.20372L11.815 1.23714L11.8486 1.27693L11.8614 1.29444C11.8766 1.31433 11.8942 1.33423 11.9318 1.39709C12.0486 1.60001 12.071 1.77905 12.0662 1.95571C12.0182 2.64245 11.5454 3.02839 11.2798 3.31725C10.6822 3.9451 10.0942 4.49417 9.58775 4.96287C9.08535 5.43555 8.64455 5.80637 8.33975 6.06897C8.03415 6.33078 7.85175 6.47322 7.85175 6.47322L7.52455 6.12229C7.52455 6.12229 8.15495 5.46261 9.09975 4.47189C9.56855 3.97534 10.115 3.39603 10.7006 2.77534C10.8326 2.62813 11.015 2.44351 11.091 2.32892C11.1838 2.19523 11.2462 2.0321 11.2454 1.92627C11.2494 1.87932 11.2262 1.82839 11.2302 1.83476C11.2422 1.84669 11.2246 1.82202 11.2046 1.79736L11.191 1.78065L11.1846 1.77269C11.179 1.76632 11.219 1.81407 11.2006 1.79179L11.1974 1.7886L11.171 1.75836C11.1366 1.72017 11.1062 1.68834 11.0814 1.66526C11.0278 1.61831 11.0134 1.61433 11.0014 1.61274C10.9878 1.60956 10.9398 1.61195 10.8718 1.639C10.7998 1.66606 10.7318 1.70505 10.6502 1.75677L10.579 1.80531C10.5718 1.81009 10.5462 1.8276 10.5534 1.82282L10.5214 1.84749L10.3942 1.94537C10.2238 2.07428 10.055 2.2207 9.88935 2.36393C9.55655 2.65359 9.23655 2.95518 8.92775 3.24722C8.30215 3.82574 7.73015 4.38356 7.24375 4.865C6.26215 5.82149 5.60855 6.45969 5.60855 6.45969L5.25415 6.13582Z" fill="black"/>
<path fill-rule="evenodd" clip-rule="evenodd" d="M18.3626 6.60492C18.3626 6.60492 17.7082 6.13065 16.7266 5.41844C16.237 5.06195 15.6642 4.64974 15.0418 4.22163C14.7314 4.00757 14.4106 3.78635 14.085 3.56195C13.9202 3.45293 13.7546 3.34311 13.5882 3.2333L13.3362 3.07335C13.2618 3.0264 13.1378 2.94762 13.141 2.96115C13.0538 2.92932 12.9498 2.93966 12.8706 2.989C12.8306 3.00173 12.6434 3.21579 12.597 3.28502C12.5554 3.35744 12.5466 3.45372 12.5818 3.54444C12.5994 3.589 12.6266 3.63197 12.6618 3.66778C12.6794 3.68608 12.6978 3.70359 12.7202 3.71791L12.8346 3.79908C13.4594 4.23038 14.0322 4.64895 14.5234 5.00704C15.5074 5.72004 16.1466 6.22057 16.1466 6.22057L15.8746 6.61447C15.8746 6.61447 15.1794 6.19669 14.161 5.53224C13.6514 5.2012 13.0562 4.81606 12.4298 4.38635L12.3098 4.30518C12.2522 4.26619 12.1978 4.22004 12.1474 4.1707C12.0466 4.07043 11.9642 3.94868 11.9082 3.81261C11.7946 3.54285 11.8002 3.20783 11.953 2.93091C11.9754 2.89351 12.0018 2.85054 12.0242 2.81951L12.0698 2.75982L12.181 2.63012C12.2258 2.57123 12.3674 2.42163 12.4954 2.35558C12.7626 2.19722 13.1026 2.16778 13.3962 2.27919C13.5922 2.35876 13.6306 2.4073 13.7282 2.4638L13.9858 2.6325C14.1546 2.74709 14.3226 2.86088 14.4898 2.97468C14.8202 3.20306 15.1426 3.43224 15.4506 3.65823C16.0626 4.115 16.6234 4.55266 17.1018 4.93065C18.049 5.69935 18.6618 6.23012 18.6618 6.23012L18.3626 6.60492Z" fill="black"/>
</svg>
