<svg width="30" height="26" viewBox="0 0 30 26" fill="none" xmlns="http://www.w3.org/2000/svg">
<path fill-rule="evenodd" clip-rule="evenodd" d="M13.7704 8.81718C13.9714 8.80918 14.2524 8.78618 14.5844 8.73018C14.9184 8.68118 15.3004 8.58418 15.7014 8.45918C16.0994 8.32018 16.5194 8.15218 16.9074 7.92118C17.3024 7.70518 17.6634 7.42718 17.9734 7.14118C18.0124 7.11018 18.0434 7.07418 18.0784 7.04018C18.1264 7.12018 18.1814 7.20718 18.2444 7.30118C18.4834 7.66618 18.8394 8.12818 19.2614 8.53018C19.6794 8.93718 20.1604 9.27718 20.5474 9.48518C20.7394 9.59318 20.9064 9.66818 21.0264 9.71518C21.1444 9.76518 21.2114 9.79418 21.2114 9.79418L21.4294 9.25118C21.4294 9.25118 21.3714 9.22318 21.2694 9.17318C21.1664 9.12718 21.0214 9.05318 20.8574 8.94918C20.5244 8.74818 20.1124 8.42518 19.7564 8.04218C19.3964 7.66318 19.0954 7.22918 18.8974 6.89218C18.7634 6.66718 18.6824 6.50118 18.6404 6.40918C18.6734 6.36318 18.7074 6.31718 18.7374 6.27218C18.8334 6.13118 18.9364 6.00118 18.9974 5.88818C19.0584 5.77418 19.1124 5.67618 19.1564 5.59418C19.2444 5.43118 19.2954 5.33818 19.2954 5.33818L18.7874 5.04718C18.7874 5.04718 18.7334 5.13718 18.6374 5.29618C18.5894 5.37518 18.5304 5.47118 18.4634 5.58118C18.3974 5.69218 18.3084 5.78418 18.2204 5.90218C18.1334 6.01718 18.0364 6.14018 17.9084 6.25818C17.7864 6.37718 17.6694 6.51418 17.5174 6.62318C17.2334 6.86018 16.9064 7.08918 16.5494 7.26118C16.2004 7.44718 15.8214 7.57618 15.4654 7.68218C15.1044 7.77518 14.7624 7.84518 14.4654 7.87318C13.8714 7.94418 13.4784 7.90318 13.4994 7.90618L13.4404 8.82118C13.4404 8.82118 13.4724 8.82218 13.5344 8.82318C13.5904 8.82318 13.6714 8.82218 13.7704 8.81718Z" fill="black"/>
<mask id="mask0" mask-type="alpha" maskUnits="userSpaceOnUse" x="5" y="1" width="20" height="25">
<path fill-rule="evenodd" clip-rule="evenodd" d="M24.059 1.00006V25.9485H5V1.00006L24.059 1.00006V1.00006Z" fill="white"/>
</mask>
<g mask="url(#mask0)">
<path fill-rule="evenodd" clip-rule="evenodd" d="M11.6706 17.6647C9.5536 15.6607 8.9156 12.0237 8.7556 10.7817C8.8756 10.7277 8.9976 10.6787 9.1176 10.6227C9.3976 10.4897 9.6666 10.3517 9.9456 10.1907C10.0906 10.1087 10.1956 10.0427 10.3386 9.94569C10.4656 9.85569 10.5966 9.77369 10.7196 9.67869C11.2186 9.31369 11.6896 8.91269 12.1226 8.47569C12.5466 8.02669 12.9476 7.57169 13.2866 7.03469L12.8066 6.69969C12.4456 7.12769 12.0306 7.54669 11.5966 7.92069C11.1626 8.29969 10.7076 8.65269 10.2266 8.96269C10.1086 9.04369 9.9826 9.11269 9.8616 9.18869L9.4896 9.40069C9.2506 9.53369 8.9866 9.66269 8.7266 9.77969C8.4286 9.91469 8.1196 10.0387 7.8106 10.1547C7.8646 9.60369 7.9316 9.05069 8.0286 8.50869C8.1716 7.72869 8.3546 6.94969 8.6486 6.25069C8.9536 5.52169 9.3356 4.86369 9.8296 4.26269C10.3166 3.66669 10.8926 3.14769 11.5416 2.74869C12.1896 2.34869 12.9156 2.08769 13.6656 1.96669C14.4116 1.84569 15.2056 1.86469 15.9786 1.96769C17.5206 2.16769 19.0036 2.81669 20.0446 3.94369C21.1006 5.05869 21.6756 6.57569 21.9046 8.13269C22.0326 8.92869 22.0446 9.66769 21.9336 10.4637C21.8256 11.2557 21.6966 12.0997 21.6766 12.9337C21.6336 13.7697 21.6966 14.6337 21.8376 15.4497C21.9046 15.8617 21.9866 16.2677 22.0676 16.6677C22.1056 16.8647 22.1526 17.0747 22.1756 17.2507C22.1966 17.4137 22.1906 17.5697 22.1496 17.7007C22.0706 17.9517 21.8426 18.0807 21.4986 18.0847C21.1696 18.0897 20.7786 17.9647 20.3686 17.8767C19.8466 17.7497 19.2746 17.6827 18.7096 17.7307C20.2746 15.7747 20.9136 12.7777 21.1556 11.1537L20.5766 11.0677C20.2216 13.4617 18.9726 19.0277 15.0646 19.0277C13.6416 19.0277 12.5336 18.4827 11.6706 17.6657V17.6647ZM9.8866 17.8917C9.6186 17.9257 9.3286 17.9627 9.0226 18.0017C8.7556 18.0347 8.4566 18.0337 8.2596 17.9567C8.0696 17.8837 7.9846 17.7607 7.9486 17.4707C7.9196 17.1937 7.9676 16.8527 8.0306 16.5127C8.0936 16.1697 8.1776 15.8187 8.2356 15.4487C8.2936 15.0717 8.3066 14.7067 8.3066 14.3567C8.3076 13.6507 8.1916 13.0017 8.1256 12.4847C8.0546 11.8977 7.9976 11.4237 7.9606 11.1097C8.0386 11.0797 8.1206 11.0517 8.1986 11.0207C8.3916 12.3847 9.0396 15.6667 10.9466 17.7567C10.6596 17.7937 10.3006 17.8387 9.8866 17.8917ZM23.8686 24.8657C23.7746 24.6107 23.7076 24.3507 23.5896 24.1047C23.4786 23.8557 23.3656 23.6107 23.2156 23.3797C23.0866 23.1417 22.9086 22.9287 22.7456 22.7127C22.5626 22.5097 22.3796 22.3097 22.1686 22.1367C21.9626 21.9597 21.7426 21.8007 21.5096 21.6657C21.2796 21.5247 21.0336 21.4147 20.7846 21.3157C20.6566 21.2727 20.5326 21.2267 20.4006 21.1937C20.2686 21.1567 20.1446 21.1317 19.9896 21.1087L19.7796 21.0787L19.6786 21.2777L19.6766 21.2817C19.5916 21.4447 19.4436 21.6377 19.2886 21.7937C19.1356 21.9587 18.9556 22.1017 18.7726 22.2387C18.5836 22.3697 18.3856 22.4877 18.1776 22.5927C17.9666 22.6907 17.7566 22.7917 17.5316 22.8607C17.0916 23.0227 16.6236 23.1117 16.1556 23.1857C15.9196 23.2067 15.6936 23.2397 15.4506 23.2517C15.2096 23.2577 14.9466 23.2737 14.7256 23.2697C14.2456 23.2617 13.7676 23.2327 13.2976 23.1597C12.8286 23.0847 12.3646 22.9777 11.9226 22.8177C11.7036 22.7347 11.4826 22.6507 11.2776 22.5417C11.0676 22.4387 10.8676 22.3187 10.6766 22.1887C10.5376 22.0917 10.4056 21.9867 10.2796 21.8757C10.3906 21.8217 10.5376 21.7427 10.7106 21.6367C11.0746 21.4187 11.5336 21.0857 11.9526 20.7087C12.3746 20.3347 12.7556 19.9197 13.0246 19.5917C13.1126 19.4877 13.1846 19.3957 13.2486 19.3117C13.7956 19.5017 14.3966 19.6127 15.0646 19.6127C15.6116 19.6127 16.1116 19.5197 16.5676 19.3517C16.7036 19.5287 16.9136 19.7937 17.1776 20.0957L17.3506 20.2957C17.6146 20.6027 17.8226 20.8457 18.2626 21.1837L18.6196 20.7207C18.2276 20.4187 18.0546 20.2187 17.7936 19.9147L17.6176 19.7107C17.4136 19.4777 17.2416 19.2657 17.1146 19.1017C17.4376 18.9277 17.7366 18.7147 18.0126 18.4707C18.7206 18.2457 19.4726 18.2947 20.2256 18.4887C20.6116 18.5747 21.0066 18.7247 21.4996 18.7367C21.7406 18.7387 22.0046 18.6987 22.2536 18.5627C22.5036 18.4297 22.6996 18.1787 22.7896 17.9207C22.8776 17.6627 22.8856 17.4007 22.8596 17.1597C22.8326 16.9297 22.7896 16.7397 22.7536 16.5347C22.6786 16.1327 22.6046 15.7367 22.5466 15.3397C22.4246 14.5427 22.3716 13.7667 22.4346 12.9697C22.4796 12.1677 22.5956 11.3927 22.7176 10.5667C22.8456 9.74369 22.8376 8.83169 22.7076 8.01269C22.5866 7.17669 22.3786 6.34469 22.0466 5.55069C21.7136 4.75969 21.2576 4.00669 20.6616 3.36869C20.0706 2.72869 19.3516 2.20569 18.5686 1.83069C17.7856 1.45569 16.9466 1.22169 16.0996 1.10169C15.2556 0.984692 14.3976 0.954692 13.5266 1.08669C12.6636 1.22069 11.8196 1.51869 11.0726 1.97269C10.3246 2.42569 9.6676 3.01269 9.1166 3.67769C8.5646 4.33469 8.1156 5.10569 7.7856 5.88169C7.4416 6.69069 7.2476 7.51369 7.0906 8.33769C6.9406 9.16569 6.8306 9.98269 6.7816 10.8317L6.7406 11.5407L7.3816 11.3237C7.4106 11.6327 7.4496 12.0517 7.4966 12.5537C7.5536 13.1077 7.6446 13.7057 7.6266 14.3517C7.6176 14.6757 7.5976 15.0077 7.5386 15.3307C7.4776 15.6587 7.3856 16.0057 7.3086 16.3677C7.2336 16.7317 7.1576 17.1087 7.1856 17.5387C7.2026 17.7527 7.2526 17.9897 7.3866 18.2117C7.5196 18.4347 7.7436 18.6027 7.9556 18.6897C8.3906 18.8617 8.7686 18.8407 9.1106 18.8167C9.4186 18.7867 9.7096 18.7587 9.9776 18.7327C11.0516 18.6297 11.7676 18.5607 11.7676 18.5607L11.7626 18.5127C11.9566 18.6607 12.1626 18.7947 12.3776 18.9167C12.3506 18.9577 12.3266 18.9947 12.2956 19.0407C12.0776 19.3597 11.7626 19.7737 11.4076 20.1507C11.0556 20.5307 10.6646 20.8707 10.3526 21.0987C10.1986 21.2147 10.0646 21.3027 9.9676 21.3597C9.9166 21.3917 9.8796 21.4147 9.8536 21.4307C9.8076 21.3717 9.7586 21.3117 9.7256 21.2577L9.6166 20.8787L9.4206 20.7097H9.4146C9.2546 20.7097 9.1306 20.9677 8.9956 21.0087C8.8646 21.0487 8.7356 21.1947 8.6096 21.2467C8.3576 21.3497 8.1146 21.5257 7.8846 21.6697C7.6536 21.8127 7.4296 21.9957 7.2246 22.1737C7.1186 22.2597 7.0146 22.3607 6.9206 22.4587C6.8256 22.5547 6.7216 22.6517 6.6336 22.7547C6.4546 22.9587 6.2746 23.1677 6.1216 23.3917C5.9536 23.6067 5.8216 23.8437 5.6786 24.0747C5.5386 24.3077 5.4226 24.5667 5.2956 24.8147L4.9996 25.5167L6.2306 25.9487L6.4396 25.2227C6.5216 25.0127 6.5856 24.7977 6.6816 24.5847C6.7806 24.3737 6.8696 24.1537 6.9916 23.9547C7.0996 23.7457 7.2316 23.5547 7.3636 23.3617C7.4276 23.2637 7.5066 23.1787 7.5776 23.0857C7.6476 22.9917 7.7266 22.9067 7.8076 22.8227C7.9646 22.6497 8.1386 22.4937 8.3206 22.3477C8.5026 22.2017 8.6966 22.0697 8.8996 21.9567C9.0006 21.8997 9.1046 21.8477 9.2096 21.8017C9.2576 21.7797 9.3096 21.7597 9.3586 21.7407C9.4776 21.8987 9.5996 22.0397 9.7356 22.1737C9.9236 22.3607 10.1306 22.5207 10.3446 22.6697C10.5596 22.8167 10.7826 22.9507 11.0146 23.0637C11.2436 23.1847 11.4846 23.2777 11.7246 23.3677C12.2076 23.5427 12.7066 23.6577 13.2086 23.7377C13.7106 23.8157 14.2166 23.8467 14.7206 23.8547C14.9906 23.8577 15.2186 23.8417 15.4706 23.8367C15.7186 23.8247 15.9796 23.7887 16.2336 23.7657C16.7366 23.6857 17.2396 23.5907 17.7246 23.4127C17.9696 23.3357 18.2056 23.2247 18.4396 23.1157C18.6726 22.9987 18.8966 22.8647 19.1116 22.7157C19.3226 22.5587 19.5286 22.3937 19.7116 22.1987C19.8446 22.0587 19.9616 21.9087 20.0726 21.7407C20.1176 21.7557 20.1636 21.7717 20.2076 21.7907C20.3136 21.8297 20.4156 21.8827 20.5186 21.9297C20.7186 22.0387 20.9146 22.1537 21.0926 22.2937C21.2746 22.4287 21.4416 22.5817 21.5936 22.7457C21.7496 22.9067 21.8806 23.0897 22.0106 23.2697C22.1216 23.4647 22.2476 23.6477 22.3296 23.8577C22.4296 24.0567 22.4986 24.2717 22.5666 24.4847C22.6416 24.6947 22.6706 24.9257 22.7256 25.1417C22.7596 25.3657 22.7806 25.5937 22.8106 25.8177L24.0596 25.6477C23.9956 25.3857 23.9396 25.1237 23.8686 24.8657Z" fill="black"/>
</g>
</svg>
