<svg width="25" height="22" viewBox="0 0 25 22" fill="none" xmlns="http://www.w3.org/2000/svg">
<path fill-rule="evenodd" clip-rule="evenodd" d="M17.2891 7.51391L17.2799 7.72975H17.3166C17.2774 6.06308 16.9424 3.88558 15.7691 2.73475C14.4349 1.42475 12.8558 1.06308 12.1083 1.06308H11.7566L9.59575 1.85475L7.25909 3.67225L6.20575 6.64891L5.95825 8.55641L6.20575 9.14725L6.53909 11.2797L6.24409 13.6489L6.20659 14.0822L7.60242 13.9531L8.96242 14.0156L8.19992 12.8381L7.38325 10.7431L6.98242 8.62225L8.86658 7.54308L10.2983 6.34558L11.9916 6.89225L14.0224 6.31891L14.9599 5.48558L16.2266 6.67558L17.2891 7.51391Z" fill="#F6CEA9"/>
<path fill-rule="evenodd" clip-rule="evenodd" d="M17.2543 9.39624H17.1443L17.0685 10.2129L16.3835 12.4229L15.2693 14.5246C15.2693 14.5246 16.6626 14.1787 17.1093 14.1787C17.5551 14.1787 17.981 14.2246 17.6676 13.3854C17.3476 12.5271 17.2176 10.2296 17.2543 9.39624Z" fill="#F6CEA9"/>
<path fill-rule="evenodd" clip-rule="evenodd" d="M11.4754 7.34766C11.6429 7.34099 11.8771 7.32183 12.1538 7.27516C12.4321 7.23433 12.7504 7.15349 13.0846 7.04933C13.4163 6.93349 13.7663 6.79349 14.0896 6.60099C14.4188 6.42099 14.7196 6.18933 14.9779 5.95099C15.0104 5.92516 15.0363 5.89516 15.0654 5.86683C15.1054 5.93349 15.1513 6.00599 15.2038 6.08433C15.4029 6.38849 15.6996 6.77349 16.0513 7.10849C16.3996 7.44766 16.8004 7.73099 17.1229 7.90433C17.2829 7.99433 17.4221 8.05683 17.5221 8.09599C17.6204 8.13766 17.6763 8.16183 17.6763 8.16183L17.8579 7.70933C17.8579 7.70933 17.8096 7.68599 17.7246 7.64433C17.6388 7.60599 17.5179 7.54433 17.3813 7.45766C17.1038 7.29016 16.7604 7.02099 16.4638 6.70183C16.1638 6.38599 15.9129 6.02433 15.7479 5.74349C15.6363 5.55599 15.5688 5.41766 15.5338 5.34099C15.5613 5.30266 15.5896 5.26433 15.6146 5.22683C15.6946 5.10933 15.7804 5.00099 15.8313 4.90683C15.8821 4.81183 15.9271 4.73016 15.9638 4.66183C16.0371 4.52599 16.0796 4.44849 16.0796 4.44849L15.6563 4.20599C15.6563 4.20599 15.6113 4.28099 15.5313 4.41349C15.4913 4.47933 15.4421 4.55933 15.3863 4.65099C15.3313 4.74349 15.2571 4.82016 15.1838 4.91849C15.1113 5.01433 15.0304 5.11683 14.9238 5.21516C14.8221 5.31433 14.7246 5.42849 14.5979 5.51933C14.3613 5.71683 14.0888 5.90766 13.7913 6.05099C13.5004 6.20599 13.1846 6.31349 12.8879 6.40183C12.5871 6.47933 12.3021 6.53766 12.0546 6.56099C11.5596 6.62016 11.2321 6.58599 11.2496 6.58849L11.2004 7.35099C11.2004 7.35099 11.2271 7.35183 11.2788 7.35266C11.3254 7.35266 11.3929 7.35183 11.4754 7.34766Z" fill="black"/>
<mask id="mask0" mask-type="alpha" maskUnits="userSpaceOnUse" x="4" y="0" width="17" height="22">
<path fill-rule="evenodd" clip-rule="evenodd" d="M20.0492 0.833374V21.6237H4.16675V0.833374L20.0492 0.833374V0.833374Z" fill="white"/>
</mask>
<g mask="url(#mask0)">
<path fill-rule="evenodd" clip-rule="evenodd" d="M9.72568 14.7206C7.96151 13.0506 7.42984 10.0197 7.29651 8.98474C7.39651 8.93974 7.49818 8.8989 7.59818 8.85224C7.83151 8.7414 8.05568 8.6264 8.28818 8.49224C8.40901 8.4239 8.49651 8.3689 8.61568 8.28807C8.72151 8.21307 8.83068 8.14474 8.93318 8.06557C9.34901 7.7614 9.74151 7.42724 10.1023 7.06307C10.4557 6.6889 10.7898 6.30974 11.0723 5.86224L10.6723 5.58307C10.3715 5.93974 10.0257 6.2889 9.66401 6.60057C9.30234 6.9164 8.92318 7.21057 8.52234 7.4689C8.42401 7.5364 8.31901 7.5939 8.21818 7.65724L7.90818 7.8339C7.70901 7.94474 7.48901 8.05224 7.27234 8.14974C7.02401 8.26224 6.76651 8.36557 6.50901 8.46224C6.55401 8.00307 6.60984 7.54224 6.69068 7.09057C6.80984 6.44057 6.96234 5.7914 7.20734 5.2089C7.46151 4.6014 7.77984 4.05307 8.19151 3.55224C8.59734 3.05557 9.07734 2.62307 9.61818 2.29057C10.1582 1.95724 10.7632 1.73974 11.3882 1.6389C12.0098 1.53807 12.6715 1.5539 13.3157 1.63974C14.6007 1.8064 15.8365 2.34724 16.704 3.2864C17.584 4.21557 18.0632 5.47974 18.254 6.77724C18.3607 7.44057 18.3707 8.0564 18.2782 8.71974C18.1882 9.37974 18.0807 10.0831 18.064 10.7781C18.0282 11.4747 18.0807 12.1947 18.1982 12.8747C18.254 13.2181 18.3223 13.5564 18.3898 13.8897C18.4215 14.0539 18.4607 14.2289 18.4798 14.3756C18.4973 14.5114 18.4923 14.6414 18.4582 14.7506C18.3923 14.9597 18.2023 15.0672 17.9157 15.0706C17.6415 15.0747 17.3157 14.9706 16.974 14.8972C16.539 14.7914 16.0623 14.7356 15.5915 14.7756C16.8957 13.1456 17.4282 10.6481 17.6298 9.29474L17.1473 9.22307C16.8515 11.2181 15.8107 15.8564 12.554 15.8564C11.3682 15.8564 10.4448 15.4022 9.72568 14.7214V14.7206ZM8.239 14.9097C8.01567 14.9381 7.774 14.9689 7.519 15.0014C7.2965 15.0289 7.04733 15.0281 6.88317 14.9639C6.72483 14.9031 6.654 14.8006 6.624 14.5589C6.59983 14.3281 6.63983 14.0439 6.69233 13.7606C6.74483 13.4747 6.81483 13.1822 6.86317 12.8739C6.9115 12.5597 6.92233 12.2556 6.92233 11.9639C6.92317 11.3756 6.8265 10.8347 6.7715 10.4039C6.71233 9.91473 6.66483 9.51973 6.634 9.25807C6.699 9.23307 6.76733 9.20973 6.83233 9.1839C6.99317 10.3206 7.53317 13.0556 9.12233 14.7972C8.88317 14.8281 8.584 14.8656 8.239 14.9097ZM19.8907 20.7214C19.8123 20.5089 19.7565 20.2922 19.6582 20.0872C19.5657 19.8797 19.4715 19.6756 19.3465 19.4831C19.239 19.2847 19.0907 19.1072 18.9548 18.9272C18.8023 18.7581 18.6498 18.5914 18.474 18.4472C18.3023 18.2997 18.119 18.1672 17.9248 18.0547C17.7332 17.9372 17.5282 17.8456 17.3207 17.7631C17.214 17.7272 17.1107 17.6889 17.0007 17.6614C16.8907 17.6306 16.7873 17.6097 16.6582 17.5906L16.4832 17.5656L16.399 17.7314L16.3973 17.7347C16.3265 17.8706 16.2032 18.0314 16.074 18.1614C15.9465 18.2989 15.7965 18.4181 15.644 18.5322C15.4865 18.6414 15.3215 18.7397 15.1482 18.8272C14.9723 18.9089 14.7973 18.9931 14.6098 19.0506C14.2432 19.1856 13.8532 19.2597 13.4632 19.3214C13.2665 19.3389 13.0782 19.3664 12.8757 19.3764C12.6748 19.3814 12.4557 19.3947 12.2715 19.3914C11.8715 19.3847 11.4732 19.3606 11.0815 19.2997C10.6907 19.2372 10.304 19.1481 9.93567 19.0147C9.75317 18.9456 9.569 18.8756 9.39817 18.7847C9.22317 18.6989 9.0565 18.5989 8.89734 18.4906C8.7815 18.4097 8.6715 18.3222 8.5665 18.2297C8.659 18.1847 8.7815 18.1189 8.92567 18.0306C9.229 17.8489 9.6115 17.5714 9.96067 17.2572C10.3123 16.9456 10.6298 16.5997 10.854 16.3264C10.9273 16.2397 10.9873 16.1631 11.0407 16.0931C11.4965 16.2514 11.9973 16.3439 12.554 16.3439C13.0098 16.3439 13.4265 16.2664 13.8065 16.1264C13.9198 16.2739 14.0948 16.4947 14.3148 16.7464L14.459 16.9131C14.679 17.1689 14.8523 17.3714 15.219 17.6531L15.5165 17.2672C15.1898 17.0156 15.0457 16.8489 14.8282 16.5956L14.6815 16.4256C14.5115 16.2314 14.3682 16.0547 14.2623 15.9181C14.5315 15.7731 14.7807 15.5956 15.0107 15.3922C15.6007 15.2047 16.2273 15.2456 16.8548 15.4072C17.1765 15.4789 17.5057 15.6039 17.9165 15.6139C18.1173 15.6156 18.3373 15.5822 18.5448 15.4689C18.7532 15.3581 18.9165 15.1489 18.9915 14.9339C19.0648 14.7189 19.0715 14.5006 19.0498 14.2997C19.0273 14.1081 18.9915 13.9497 18.9615 13.7789C18.899 13.4439 18.8373 13.1139 18.789 12.7831C18.6873 12.1189 18.6432 11.4722 18.6957 10.8081C18.7332 10.1397 18.8298 9.4939 18.9315 8.80557C19.0382 8.11973 19.0315 7.35973 18.9232 6.67723C18.8223 5.98057 18.649 5.28723 18.3723 4.62557C18.0948 3.9664 17.7148 3.3389 17.2182 2.80723C16.7257 2.2739 16.1265 1.83807 15.474 1.52557C14.8215 1.21307 14.1223 1.01807 13.4165 0.918066C12.7132 0.820566 11.9982 0.795566 11.2723 0.905566C10.5532 1.01723 9.84984 1.26557 9.22734 1.6439C8.604 2.0214 8.0565 2.51057 7.59734 3.06473C7.13734 3.61223 6.76317 4.25473 6.48817 4.9014C6.2015 5.57557 6.03984 6.2614 5.909 6.94807C5.784 7.63807 5.69234 8.3189 5.6515 9.0264L5.61734 9.61723L6.1515 9.4364C6.17567 9.6939 6.20817 10.0431 6.24734 10.4614C6.29484 10.9231 6.37067 11.4214 6.35567 11.9597C6.34817 12.2297 6.3315 12.5064 6.28234 12.7756C6.2315 13.0489 6.15484 13.3381 6.09067 13.6397C6.02817 13.9431 5.96484 14.2572 5.98817 14.6156C6.00234 14.7939 6.044 14.9914 6.15567 15.1764C6.2665 15.3622 6.45317 15.5022 6.62984 15.5747C6.99234 15.7181 7.30734 15.7006 7.59234 15.6806C7.849 15.6556 8.0915 15.6322 8.31484 15.6106C9.20984 15.5247 9.8065 15.4672 9.8065 15.4672L9.80234 15.4272C9.964 15.5506 10.1357 15.6622 10.3148 15.7639C10.2923 15.7981 10.2723 15.8289 10.2465 15.8672C10.0648 16.1331 9.80234 16.4781 9.5065 16.7922C9.21317 17.1089 8.88734 17.3922 8.62734 17.5822C8.499 17.6789 8.38734 17.7522 8.3065 17.7997C8.264 17.8264 8.23317 17.8456 8.2115 17.8589C8.17317 17.8097 8.13234 17.7597 8.10484 17.7147L8.014 17.3989L7.85067 17.2581H7.84567C7.71234 17.2581 7.609 17.4731 7.4965 17.5072C7.38734 17.5406 7.27984 17.6622 7.17484 17.7056C6.96484 17.7914 6.76234 17.9381 6.57067 18.0581C6.37817 18.1772 6.1915 18.3297 6.02067 18.4781C5.93234 18.5497 5.84567 18.6339 5.76734 18.7156C5.68817 18.7956 5.6015 18.8764 5.52817 18.9622C5.379 19.1322 5.229 19.3064 5.1015 19.4931C4.9615 19.6722 4.8515 19.8697 4.73234 20.0622C4.61567 20.2564 4.519 20.4722 4.41317 20.6789L4.1665 21.2639L5.19234 21.6239L5.3665 21.0189C5.43484 20.8439 5.48817 20.6647 5.56817 20.4872C5.65067 20.3114 5.72484 20.1281 5.8265 19.9622C5.9165 19.7881 6.0265 19.6289 6.1365 19.4681C6.18984 19.3864 6.25567 19.3156 6.31484 19.2381C6.37317 19.1597 6.439 19.0889 6.5065 19.0189C6.63734 18.8747 6.78234 18.7447 6.934 18.6231C7.08567 18.5014 7.24734 18.3914 7.4165 18.2972C7.50067 18.2497 7.58734 18.2064 7.67484 18.1681C7.71484 18.1497 7.75817 18.1331 7.799 18.1172C7.89817 18.2489 7.99984 18.3664 8.11317 18.4781C8.26984 18.6339 8.44234 18.7672 8.62067 18.8914C8.79984 19.0139 8.98567 19.1256 9.179 19.2197C9.36984 19.3206 9.57067 19.3981 9.77067 19.4731C10.1732 19.6189 10.589 19.7147 11.0073 19.7814C11.4257 19.8464 11.8473 19.8722 12.2673 19.8789C12.4923 19.8814 12.6823 19.8681 12.8923 19.8639C13.099 19.8539 13.3165 19.8239 13.5282 19.8047C13.9473 19.7381 14.3665 19.6589 14.7707 19.5106C14.9748 19.4464 15.1715 19.3539 15.3665 19.2631C15.5607 19.1656 15.7473 19.0539 15.9265 18.9297C16.1023 18.7989 16.274 18.6614 16.4265 18.4989C16.5373 18.3822 16.6348 18.2572 16.7273 18.1172C16.7648 18.1297 16.8032 18.1431 16.8398 18.1589C16.9282 18.1914 17.0132 18.2356 17.099 18.2747C17.2657 18.3656 17.429 18.4614 17.5773 18.5781C17.729 18.6906 17.8682 18.8181 17.9948 18.9547C18.1248 19.0889 18.234 19.2414 18.3423 19.3914C18.4348 19.5539 18.5398 19.7064 18.6082 19.8814C18.6915 20.0472 18.749 20.2264 18.8057 20.4039C18.8682 20.5789 18.8923 20.7714 18.9382 20.9514C18.9665 21.1381 18.984 21.3281 19.009 21.5147L20.0498 21.3731C19.9965 21.1547 19.9498 20.9364 19.8907 20.7214Z" fill="black"/>
</g>
</svg>
