<svg width="30" height="26" viewBox="0 0 30 26" fill="none" xmlns="http://www.w3.org/2000/svg">
<path fill-rule="evenodd" clip-rule="evenodd" d="M14.2536 10.0519C14.8266 8.6869 15.5746 7.4119 16.5476 6.2689C17.0496 5.7159 17.5956 5.17891 18.2646 4.7819C18.9176 4.3769 19.6756 4.0619 20.4806 4.0219C21.2726 3.9279 22.1106 4.1469 22.7726 4.4039C23.5426 4.73491 24.1856 5.1879 24.7246 5.7699C25.2466 6.3549 25.6856 7.02091 25.9566 7.7499C26.2646 8.4669 26.4066 9.2359 26.4866 10.0029C26.5286 10.7719 26.5106 11.5529 26.3246 12.3059C26.1736 13.0649 25.8846 13.7929 25.5186 14.4769C25.1366 15.1409 24.6326 15.7969 24.1056 16.2969C23.6056 16.8109 23.0206 17.3989 22.4676 17.8639C20.2016 19.7399 17.7396 20.7359 15.1546 22.7359H15.1526L14.7046 22.8939L14.4656 22.3919C14.2086 21.8909 13.8666 21.3449 13.5076 20.8669C13.1476 20.3819 12.7476 19.9169 12.3216 19.4909C11.8996 19.0619 11.4506 18.6549 10.9706 18.2959C10.4976 17.9249 9.9806 17.6169 9.4566 17.3299C8.9016 17.0319 8.3276 16.7229 7.7786 16.3449C7.2296 15.9879 6.7136 15.5689 6.2306 15.1099C5.2746 14.1909 4.4726 13.0059 4.1686 11.6529C4.0096 10.9829 3.9676 10.2899 4.0236 9.6149C4.0366 9.4469 4.0656 9.2799 4.0856 9.11291C4.1016 9.0169 4.0986 8.97491 4.1296 8.83391L4.1856 8.60491C4.2416 8.3119 4.3666 7.9709 4.4976 7.6339C4.7816 7.0039 5.1176 6.4109 5.5826 5.90591C6.0246 5.3869 6.5656 4.94491 7.1796 4.6289C7.7776 4.27691 8.4766 4.1389 9.1576 4.0589C9.8456 4.0489 10.5376 4.1229 11.1666 4.3669C11.4846 4.4799 11.7966 4.6019 12.0776 4.7799C12.3686 4.9399 12.6586 5.0999 12.9096 5.3099C13.4536 5.6819 13.9026 6.1489 14.3686 6.5949L13.9656 6.99391C13.4976 6.5969 13.0486 6.1769 12.5296 5.8659C12.2866 5.6829 12.0156 5.5559 11.7476 5.4279C11.4866 5.2789 11.2046 5.19191 10.9246 5.1069C10.3696 4.9129 9.7886 4.88291 9.2226 4.90591C8.6666 5.0019 8.1046 5.12291 7.6226 5.4379C7.1306 5.7189 6.6846 6.09191 6.3226 6.53991C5.9386 6.96791 5.6636 7.4949 5.4416 8.0099C5.3516 8.26391 5.2536 8.5099 5.1956 8.8389L5.1446 9.0689L5.1236 9.25691L5.0786 9.69191C5.0436 10.2719 5.0986 10.8459 5.2246 11.4009C5.4756 12.5159 6.1386 13.5089 6.9866 14.3249C7.8546 15.1539 8.8476 15.7799 9.9626 16.3579C10.5426 16.6729 11.1116 17.0109 11.6306 17.4169C12.1556 17.8119 12.6536 18.2439 13.1036 18.7209C13.5556 19.1949 13.9746 19.6989 14.3526 20.2329C14.7336 20.7709 15.0706 21.3249 15.3736 21.9519L14.6856 21.7359H14.6876C15.9226 20.7359 17.1446 20.2699 18.3256 19.4759C19.5146 18.6909 20.6766 17.8549 21.7606 16.9479C22.3086 16.4829 22.8116 16.0429 23.3176 15.5239C23.8356 15.0279 24.2056 14.5209 24.5496 13.9409C24.8596 13.3549 25.1106 12.7299 25.2386 12.0729C25.4036 11.4229 25.4076 10.7459 25.3956 10.0789C25.3396 9.4159 25.2346 8.7459 24.9836 8.13091C24.7676 7.49991 24.4076 6.93691 23.9876 6.43791C23.5596 5.94691 23.0036 5.55691 22.4586 5.29691C21.7926 5.02591 21.1936 4.8609 20.5436 4.9169C19.9026 4.92891 19.2766 5.1709 18.7046 5.50591C18.1186 5.82891 17.6176 6.3119 17.1336 6.8009C16.1896 7.8119 15.4036 9.0209 14.8066 10.2869L14.2536 10.0519Z" fill="#181716"/>
</svg>
