<svg width="9" height="7" viewBox="0 0 9 7" fill="none" xmlns="http://www.w3.org/2000/svg">
<path fill-rule="evenodd" clip-rule="evenodd" d="M7.59091 0.234176C7.74521 0.0847084 7.95352 0.000588845 8.17079 3.07972e-06C8.38806 -0.000582686 8.59683 0.0824124 8.75198 0.231046C8.90713 0.379679 8.99618 0.582007 8.99988 0.794288C9.00358 1.00657 8.92164 1.21174 8.77177 1.36546L4.37029 6.74174C4.29464 6.82136 4.20334 6.88525 4.10184 6.9296C4.00035 6.97395 3.89074 6.99785 3.77958 6.99986C3.66842 7.00187 3.55799 6.98196 3.45488 6.94131C3.35178 6.90066 3.25812 6.84011 3.17951 6.76329L0.263194 3.91246C0.181949 3.83848 0.116784 3.74927 0.0715874 3.65015C0.0263907 3.55103 0.00208773 3.44403 0.000128692 3.33553C-0.00183035 3.22703 0.0185947 3.11926 0.060185 3.01864C0.101775 2.91802 0.163679 2.82662 0.242203 2.74989C0.320727 2.67316 0.414262 2.61267 0.51723 2.57203C0.620197 2.53138 0.730487 2.51143 0.84152 2.51334C0.952552 2.51525 1.06205 2.539 1.16349 2.58317C1.26492 2.62733 1.35622 2.69101 1.43192 2.7704L3.74072 5.02542L7.56996 0.257879C7.57679 0.249533 7.58416 0.241616 7.59201 0.234176H7.59091Z" fill="#F08B98"/>
</svg>
