<svg width="25" height="22" viewBox="0 0 25 22" fill="none" xmlns="http://www.w3.org/2000/svg">
<path fill-rule="evenodd" clip-rule="evenodd" d="M9.62345 6.08485C9.61679 6.08402 9.61012 6.08402 9.60262 6.08318C9.61012 6.08068 9.61679 6.07652 9.62429 6.07402C9.62429 6.07735 9.62345 6.08152 9.62345 6.08485ZM17.1035 4.91568C16.5601 4.58902 15.7835 4.35652 15.1518 4.44402C13.8768 4.62068 13.371 6.25818 12.6593 7.43652C12.6218 7.37735 12.821 7.10568 12.7635 7.07152C12.8368 6.92152 12.2468 6.50902 12.096 6.34652C11.8551 6.08735 11.5985 5.81235 11.3268 5.54152C11.2985 5.38402 11.2051 5.24402 11.0335 5.19818C11.0035 5.18985 10.971 5.18068 10.9401 5.17152C10.2026 4.49568 9.36595 3.91735 8.43428 3.80152C7.57012 3.69318 6.88178 3.93485 6.30762 4.39235C6.19762 4.32402 6.05845 4.30735 5.89845 4.39652C5.60095 4.56402 5.37262 4.78235 5.21012 5.03818C4.92428 5.29235 4.68512 5.60235 4.53595 5.97402C4.36178 6.40568 4.34428 6.84068 4.34845 7.27402C4.25262 7.69818 4.20262 8.13735 4.19678 8.58985C3.95928 8.72568 3.83012 9.02818 4.07428 9.30068C6.15678 11.629 9.28012 12.8757 10.9343 15.6224C11.511 16.579 11.5635 18.779 12.5401 18.2474C13.1643 17.9082 14.3918 16.5457 14.8743 16.0349C15.2943 15.589 19.3935 12.1824 19.9435 10.4074C20.9926 7.01985 17.7485 5.30318 17.1035 4.91568Z" fill="#F08B98"/>
<path fill-rule="evenodd" clip-rule="evenodd" d="M11.8779 8.37658C12.3554 7.23908 12.9787 6.17658 13.7896 5.22408C14.2079 4.76324 14.6629 4.31574 15.2204 3.98491C15.7646 3.64741 16.3962 3.38491 17.0671 3.35158C17.7271 3.27324 18.4254 3.45574 18.9771 3.66991C19.6187 3.94574 20.1546 4.32324 20.6037 4.80824C21.0387 5.29574 21.4046 5.85074 21.6304 6.45824C21.8871 7.05574 22.0054 7.69658 22.0721 8.33574C22.1071 8.97658 22.0921 9.62741 21.9371 10.2549C21.8112 10.8874 21.5704 11.4941 21.2654 12.0641C20.9471 12.6174 20.5271 13.1641 20.0879 13.5807C19.6712 14.0091 19.1837 14.4991 18.7229 14.8866C16.8346 16.4499 14.7829 17.2799 12.6287 18.9466H12.6271L12.2537 19.0782L12.0546 18.6599C11.8404 18.2424 11.5554 17.7874 11.2562 17.3891C10.9562 16.9849 10.6229 16.5974 10.2679 16.2424C9.91623 15.8849 9.54206 15.5457 9.14206 15.2466C8.7479 14.9374 8.31706 14.6807 7.8804 14.4416C7.4179 14.1932 6.93956 13.9357 6.48206 13.6207C6.02456 13.3232 5.59456 12.9741 5.19206 12.5916C4.3954 11.8257 3.72706 10.8382 3.47373 9.71074C3.34123 9.15241 3.30623 8.57491 3.3529 8.01241C3.36373 7.87241 3.3879 7.73324 3.40456 7.59408C3.4179 7.51408 3.4154 7.47908 3.44123 7.36158L3.4879 7.17074C3.53456 6.92658 3.63873 6.64241 3.7479 6.36158C3.98456 5.83658 4.26456 5.34241 4.65206 4.92158C5.0204 4.48908 5.47123 4.12074 5.9829 3.85741C6.48123 3.56408 7.06373 3.44908 7.63123 3.38241C8.20456 3.37408 8.78123 3.43574 9.3054 3.63908C9.5704 3.73324 9.8304 3.83491 10.0646 3.98324C10.3071 4.11658 10.5487 4.24991 10.7579 4.42491C11.2112 4.73491 11.5854 5.12408 11.9737 5.49574L11.6379 5.82824C11.2479 5.49741 10.8737 5.14741 10.4412 4.88824C10.2387 4.73574 10.0129 4.62991 9.78956 4.52324C9.57206 4.39908 9.33706 4.32658 9.10373 4.25574C8.64123 4.09408 8.15706 4.06908 7.6854 4.08824C7.22206 4.16824 6.75373 4.26908 6.35206 4.53158C5.94206 4.76574 5.5704 5.07658 5.26873 5.44991C4.94873 5.80658 4.71956 6.24574 4.53456 6.67491C4.45956 6.88658 4.3779 7.09158 4.32956 7.36574L4.28706 7.55741L4.26956 7.71408L4.23206 8.07658C4.2029 8.55991 4.24873 9.03824 4.35373 9.50074C4.5629 10.4299 5.1154 11.2574 5.82206 11.9374C6.5454 12.6282 7.3729 13.1499 8.30206 13.6316C8.7854 13.8941 9.25956 14.1757 9.69206 14.5141C10.1296 14.8432 10.5446 15.2032 10.9196 15.6007C11.2962 15.9957 11.6454 16.4157 11.9604 16.8607C12.2779 17.3091 12.5587 17.7707 12.8112 18.2932L12.2379 18.1132H12.2396C13.2687 17.2799 14.2871 16.8916 15.2712 16.2299C16.2621 15.5757 17.2304 14.8791 18.1337 14.1232C18.5904 13.7357 19.0096 13.3691 19.4312 12.9366C19.8629 12.5232 20.1712 12.1007 20.4579 11.6174C20.7162 11.1291 20.9254 10.6082 21.0321 10.0607C21.1696 9.51908 21.1729 8.95491 21.1629 8.39908C21.1162 7.84658 21.0287 7.28824 20.8196 6.77574C20.6396 6.24991 20.3396 5.78074 19.9896 5.36491C19.6329 4.95574 19.1696 4.63074 18.7154 4.41408C18.1604 4.18824 17.6612 4.05074 17.1196 4.09741C16.5854 4.10741 16.0637 4.30908 15.5871 4.58824C15.0987 4.85741 14.6812 5.25991 14.2779 5.66741C13.4912 6.50991 12.8362 7.51741 12.3387 8.57241L11.8779 8.37658Z" fill="#181716"/>
</svg>
