<svg version="1" xmlns="http://www.w3.org/2000/svg" width="1408" height="1408" viewBox="0 0 1056.000000 1056.000000"><path d="M341.8.5c-.1.1-3.2.6-6.8.9-3.6.4-8.2 1.1-10.2 1.5-2.1.5-3.8.7-3.8.4 0-.3-.6 0-1.3.6-.8.6-1.6.8-1.9.6-.3-.3-1.7-.1-3.2.5-1.5.5-4 1.2-5.7 1.5-6.7 1.2-35.9 14-35.9 15.7 0 .4-.6.8-1.3.8-2 0-19.4 11.5-29.7 19.8-9.9 7.9-29.4 26.8-32.3 31.3-1.6 2.4-1.6 2.9 1.3 11.5 1.7 4.9 3.1 9.1 3.1 9.4.2.9.7 2.3 3.4 10.8 1.5 4.5 2.8 8.8 2.9 9.5.2 1.2 4.2 13.9 5.3 16.7.3.8.7 1.9.8 2.5.2.5 2.4 7.7 5 16 2.6 8.2 5.5 17.7 6.5 21 1 3.3 2.9 9.4 4.3 13.5 2.3 7.1 8.4 26.4 12.9 41 1.1 3.6 2.2 7.2 2.5 8 .3.8.8 2.1 1 2.7.1.7.5 1.9.6 2.5.2.7.7 2 1 2.8.4.8 1.8 5.3 3.2 10 1.5 4.7 2.8 9.2 3.1 10 .3.8.5 1.7.6 2 0 .3.6 2 1.3 3.7.8 1.8 1.1 3.3.8 3.3-.3 0 0 .7.7 1.5s1 1.5.7 1.5c-.4 0 .1 1.9.9 4.2.9 2.4 1.7 4.7 1.8 5.3.2.5.5 1.7.8 2.5.3.8 2.2 6.9 4.3 13.5 2 6.6 4.3 13.7 5.1 15.8.7 2 1.4 3.9 1.4 4.2 0 .3 0 .6.1.7 0 .2.2 1 .4 1.8s2 6.7 4 13 4.1 13.1 4.7 15c.6 1.9 1.4 4.4 1.9 5.5.4 1.1 3.1 9.6 6 19 2.8 9.3 5.5 17.9 6 19 .4 1.1 2.2 6.7 3.9 12.5 1.7 5.8 3.5 11.4 4 12.5.7 1.6 5 15.4 5.5 17.5 0 .3 1.2 3.9 2.5 8s2.5 7.7 2.5 8c0 .3 1.1 3.6 2.4 7.5 1.3 3.8 2.4 7.7 2.6 8.5.2.8 2.4 8 5 16s5.1 16.1 5.7 18c.6 1.9 1.4 4.4 1.8 5.5 1.1 2.8 5.9 18.8 6.1 20 .1.5-2.7 2.2-6.2 3.6-3.5 1.5-7.5 3.2-8.9 3.8-8.7 3.7-10.6 4-15.1 2.4-4.2-1.4-12-1.4-18.9.1-3.4.7-18 8-20.7 10.3-1.2 1-3.8 3.2-6 4.9-10.5 8.7-22.9 23.9-26.3 32.4-.6 1.4-1.6 3.6-2.4 5-1.1 2.1-2.1 5.6-3.2 11.5-.1.5-.3 1.2-.4 1.5-1.1 2.9-1.5 21.3-.6 24 .3.8.8 2.6 1 4 .6 3.1 1 4.6 3.7 14 1.1 4.1 2.9 10.4 3.9 14 1.6 5.9 5.6 20 6.4 22.5.1.5.8 3 1.5 5.5s1.5 5.2 1.8 6c.3.8.7 2.1.9 2.8.1.7 1.2 4.6 2.4 8.5 1.2 4 2.3 7.6 2.5 8.2.1.5.5 1.7.8 2.5.3.8 3.4 11.2 6.8 23s6.5 22.4 7 23.5c.7 1.9 9.1 29.3 10.9 36 .5 1.6 2 6.8 3.4 11.5 1.5 4.7 2.8 9.3 3.1 10.3.2.9 1.8 6.1 3.5 11.5 1.7 5.3 3.3 10.5 3.5 11.5.5 2.1 5.1 17.6 7 23.2 2.3 7.1 6.7 21.4 7 23.2.2 1 .4 1.9.5 2 .2.2.3.6.5 1 .1.5.4 1.5.8 2.3.5 1.2 4.8 15.4 5.2 17 .1.3.9 3.2 2 6.5 1 3.3 1.9 6.2 2 6.5 0 .3 1.2 3.9 2.5 8s2.5 7.7 2.5 8c.1.3 1.4 4.3 2.9 9 1.6 4.7 2.9 8.9 3 9.5.1.5.4 1.4.7 2 .5.8 1.3 3.5 2.5 8 .6 2.5 8.6 24.4 10.1 27.4 2.1 4.5 9.1 11.4 14.5 14.3 10.2 5.3 21.2 8.5 38.8 11.3 21.2 3.5 28.5 3.9 64 3.9 28.3 0 39.8-.4 52.5-1.8 2.2-.3 6.7-.8 10-1.1 3.3-.3 7.4-.8 9-1.1 5.7-.8 10-1.4 14-1.8 2.2-.3 5-.7 6.1-1 1.2-.2 3.9-.7 6-1 3.3-.5 20.9-4.1 25.4-5.2 27.1-6.4 57.7-16.8 72.9-24.8 1.4-.8 5.8-2.9 9.6-4.7 3.9-1.9 7.2-3.7 7.3-4.2.2-.4 1.2-.7 2.3-.7 1 0 1.9-.4 1.9-.8s1.2-1.3 2.8-1.9c3.5-1.5 16.9-9 20.4-11.4 1.4-1.1 2.9-1.9 3.3-1.9 1.5 0 40-26.1 49-33.1 21.6-17.1 41-35 51.3-47.4 19.2-22.8 25.3-37.8 21.6-52.5-.3-1.4-.8-3.6-1.1-5-.8-4.2-1.1-5.5-1.3-5.5-.1 0-.3-.8-.5-1.8s-1.3-5.1-2.5-9c-1.2-4-2.4-7.9-2.5-8.7-1-4.3-21.1-65.2-32.4-97.5-2-6.1-5.7-16.6-8.1-23.5-2.3-6.9-5.4-15.4-6.7-19-1.4-3.6-2.6-7.2-2.8-8-.3-1.3-4.5-13-6.2-17-.3-.8-.7-2.2-.9-3.1-.2-.9-.9-2.9-1.5-4.5-.7-1.6-1.3-3.4-1.5-3.9-.1-.6-1.7-4.8-3.4-9.5-1.8-4.7-3.6-9.6-4-11-.5-1.4-2.7-7.7-5-14s-4.9-13.5-5.7-16c-.9-2.5-1.9-5-2.3-5.5-.4-.6-1-2.4-1.4-4-.4-1.7-1.4-4.4-2.1-6-.7-1.7-3.4-8.9-6-16-2.5-7.2-4.9-13.7-5.2-14.5-.3-.8-.7-1.7-.8-2-.1-.3-.4-1.2-.8-2-.3-.8-2.1-5.8-4-11-12.4-33.9-15-40.8-16.2-43.5-.7-1.7-1.6-4.1-2-5.5-1.7-5.8-8.6-16.8-14.1-22.5-5.4-5.6-15.8-12.8-22.4-15.3-8.2-3.2-20.7-6.3-31.5-7.8-6.8-1-38.9-1-44.5-.1-2.5.4-6.3 1-8.5 1.3-2.2.3-5.6.9-7.5 1.3-6.4 1.3-7 1-9.5-5.2-1.3-3.1-2.1-5.7-1.8-5.7.3 0-.2-.9-1.3-2.1-1-1.2-1.7-2.3-1.5-2.5.1-.3-.2-1.7-.7-3.2-2.8-7.3-13.5-35-14.3-37-3.2-7.9-9.7-24.8-11.9-30.7-1.2-3.3-2.7-7.4-3.5-9-1.4-3.2-2.7-6.5-3-7.8-.2-.4-.4-.9-.5-1.2-.1-.3-.3-.8-.4-1.3-.1-.4-1-2.4-1.9-4.6-.9-2.1-1.7-4.4-1.7-5.2 0-.7-.4-1.5-.9-1.8-.5-.3-1.2-1.8-1.6-3.3-.3-1.6-1.3-4.2-2-5.8-.7-1.7-2.6-6.4-4.1-10.5-1.5-4.1-3.1-8-3.5-8.5-.3-.6-1.2-2.8-1.9-5s-2.8-7.8-4.7-12.5c-1.9-4.7-4.6-11.7-6-15.5-1.4-3.9-3.1-8.4-3.8-10-2.3-5.4-11.6-29-12-30.5-.4-1.6-14.9-39-16.4-42.5-.5-1.1-2.4-5.8-4.1-10.5-1.8-4.7-3.9-10-4.7-11.8-.8-1.8-1.6-4.1-1.8-5.1-.2-1-.8-2.7-1.3-3.7-.6-1.1-2-4.6-3.2-7.9-1.2-3.3-3.1-7.9-4.1-10.2-1.1-2.4-1.9-4.5-1.9-4.9 0-.3-1.1-3.3-2.4-6.7-1.3-3.4-3.6-9.4-5.1-13.2-1.5-3.9-3.4-8.5-4.2-10.4-.8-1.8-1.6-3.9-1.7-4.5-.1-.6-1-2.9-2-5.1-1-2.2-1.9-4.7-2.1-5.5-.3-1.3-1.7-4.9-6-15.5-.5-1.1-.9-2.2-1-2.5-.1-.3-.5-1.4-1-2.5-.4-1.1-2.6-6.7-4.8-12.5-7.4-19.8-6.5-18.6-15.2-20.6-.9-.2-9-1.5-18.5-3-3.9-.6-44.6-1.4-45.2-.9z"/></svg>